<svg width="456" height="123" viewBox="0 0 456 123" fill="none" xmlns="http://www.w3.org/2000/svg">
<path d="M94.5869 46.7962L91.6985 37.9976H92.9427L94.3203 42.3525C94.7203 43.5523 95.0313 44.6188 95.2535 45.6409H95.2979C95.5646 44.6188 95.9201 43.5079 96.32 42.3525L97.8309 37.9976H99.0307L95.8756 46.7962H94.5869Z" fill="white"/>
<path d="M102.141 37.9532V41.6416H106.407V37.9532H107.518V46.7963H106.407V42.6636H102.141V46.7963H100.986V37.9532H102.141Z" fill="white"/>
<path d="M112.006 43.9968L111.072 46.7519H109.873L112.85 37.9532H114.227L117.249 46.7519H116.049L115.116 43.9968H112.006ZM114.894 43.108L114.05 40.5751C113.872 39.9974 113.739 39.4641 113.605 38.9753H113.561C113.428 39.5086 113.294 40.0418 113.117 40.5751L112.272 43.108H114.894Z" fill="white"/>
<path d="M123.427 46.7962V37.9976H124.671L127.515 42.4413C128.182 43.4634 128.671 44.3966 129.115 45.2854H129.159C129.071 44.13 129.026 43.019 129.026 41.6859V37.9976H130.093V46.7962H128.937L126.138 42.308C125.516 41.3304 124.938 40.3083 124.494 39.3751H124.449C124.494 40.4861 124.538 41.5526 124.538 43.019V46.7962H123.427Z" fill="white"/>
<path d="M134.491 43.9968L133.557 46.7519H132.402L135.379 37.9532H136.757L139.779 46.7519H138.579L137.646 43.9968H134.491ZM137.379 43.108L136.535 40.5751C136.357 39.9974 136.224 39.4641 136.09 38.9753H136.046C135.913 39.5086 135.779 40.0418 135.602 40.5751L134.757 43.108H137.379Z" fill="white"/>
<path d="M142.801 38.9308H140.091V37.9976H146.623V38.9308H143.912V46.7962H142.801V38.9308Z" fill="white"/>
<path d="M149.822 37.9532H148.666V46.7519H149.822V37.9532Z" fill="white"/>
<path d="M160.354 42.3082C160.354 45.3299 158.532 46.9297 156.266 46.9297C153.955 46.9297 152.311 45.1077 152.311 42.4415C152.311 39.6419 154.044 37.8199 156.399 37.8199C158.799 37.8199 160.354 39.6863 160.354 42.3082ZM153.511 42.4415C153.511 44.3079 154.533 45.9965 156.31 45.9965C158.132 45.9965 159.154 44.3523 159.154 42.3526C159.154 40.6195 158.221 38.7531 156.355 38.7531C154.444 38.7531 153.511 40.4862 153.511 42.4415Z" fill="white"/>
<path d="M162.887 46.7962V37.9976H164.131L166.975 42.4413C167.642 43.4634 168.131 44.3966 168.575 45.2854H168.62C168.531 44.13 168.486 43.019 168.486 41.6859V37.9976H169.553V46.7962H168.398L165.598 42.308C164.976 41.3304 164.398 40.3083 163.954 39.3751H163.909C163.954 40.4861 163.998 41.5526 163.998 43.019V46.7962H162.887Z" fill="white"/>
<path d="M173.953 43.9968L173.02 46.7519H171.865L174.842 37.9532H176.219L179.241 46.7519H178.041L177.108 43.9968H173.953ZM176.842 43.108L175.997 40.5751C175.819 39.9974 175.686 39.4641 175.553 38.9753H175.508C175.375 39.5086 175.242 40.0418 175.064 40.5751L174.22 43.108H176.842Z" fill="white"/>
<path d="M181.552 37.9532H182.707V45.8187H186.484V46.7963H181.552V37.9532Z" fill="white"/>
<path d="M198.748 46.4853C198.348 46.7075 197.504 46.8853 196.437 46.8853C193.949 46.8853 192.082 45.3299 192.082 42.4415C192.082 39.6863 193.949 37.8199 196.704 37.8199C197.815 37.8199 198.481 38.0421 198.792 38.2199L198.526 39.1531C198.081 38.9309 197.504 38.7976 196.748 38.7976C194.704 38.7976 193.327 40.1307 193.327 42.4415C193.327 44.6189 194.571 45.9965 196.704 45.9965C197.415 45.9965 198.126 45.8632 198.57 45.641L198.748 46.4853Z" fill="white"/>
<path d="M205.771 42.6635H202.349V45.8186H206.171V46.7962H201.239V37.9976H205.993V38.9308H202.349V41.7303H205.771V42.6635Z" fill="white"/>
<path d="M208.703 46.7962V37.9976H209.947L212.791 42.4413C213.458 43.4634 213.947 44.3966 214.391 45.2854H214.436C214.347 44.13 214.302 43.019 214.302 41.6859V37.9976H215.369V46.7962H214.213L211.414 42.308C210.792 41.3304 210.214 40.3083 209.77 39.3751H209.725C209.77 40.4861 209.814 41.5526 209.814 43.019V46.7962H208.703Z" fill="white"/>
<path d="M220.035 38.9308H217.324V37.9976H223.856V38.9308H221.19V46.7962H220.035V38.9308Z" fill="white"/>
<path d="M230.433 42.6635H227.011V45.8186H230.833V46.7962H225.9V37.9976H230.655V38.9308H227.011V41.7303H230.433V42.6635Z" fill="white"/>
<path d="M233.366 38.0862C233.944 37.9529 234.788 37.9084 235.544 37.9084C236.743 37.9084 237.543 38.1306 238.077 38.6195C238.521 39.0194 238.788 39.5971 238.788 40.3081C238.788 41.4635 238.077 42.2634 237.143 42.5744V42.6189C237.81 42.841 238.21 43.4632 238.432 44.3964C238.743 45.6406 238.921 46.4849 239.099 46.796H237.943C237.81 46.5294 237.588 45.7739 237.366 44.7074C237.099 43.5076 236.655 43.0188 235.588 42.9744H234.522V46.796H233.366V38.0862ZM234.522 42.0856H235.677C236.877 42.0856 237.677 41.419 237.677 40.397C237.677 39.2416 236.832 38.7528 235.633 38.7528C235.099 38.7528 234.699 38.7972 234.522 38.8416V42.0856Z" fill="white"/>
<path d="M241.276 45.4186C241.765 45.7296 242.521 45.9962 243.321 45.9962C244.476 45.9962 245.142 45.3741 245.142 44.4854C245.142 43.641 244.654 43.1967 243.498 42.7523C242.076 42.219 241.188 41.508 241.188 40.2638C241.188 38.8862 242.343 37.8641 244.032 37.8641C244.92 37.8641 245.587 38.0863 245.987 38.3085L245.676 39.2417C245.409 39.064 244.787 38.8418 243.987 38.8418C242.787 38.8418 242.343 39.5528 242.343 40.1749C242.343 41.0192 242.876 41.4192 244.076 41.8635C245.587 42.4412 246.342 43.1522 246.342 44.4409C246.342 45.8185 245.32 46.9739 243.276 46.9739C242.432 46.9739 241.499 46.7073 241.01 46.3962L241.276 45.4186Z" fill="white"/>
<path d="M252.741 37.9532H257.496V38.9309H253.896V41.8638H257.229V42.797H253.896V46.7963H252.741V37.9532Z" fill="white"/>
<path d="M267.672 42.3082C267.672 45.3299 265.85 46.9297 263.584 46.9297C261.273 46.9297 259.629 45.1077 259.629 42.4415C259.629 39.6419 261.362 37.8199 263.717 37.8199C266.117 37.8199 267.672 39.6863 267.672 42.3082ZM260.873 42.4415C260.873 44.3079 261.895 45.9965 263.672 45.9965C265.494 45.9965 266.517 44.3523 266.517 42.3526C266.517 40.6195 265.583 38.7531 263.717 38.7531C261.806 38.7531 260.873 40.4862 260.873 42.4415Z" fill="white"/>
<path d="M270.205 38.0862C270.783 37.9529 271.627 37.9084 272.382 37.9084C273.582 37.9084 274.382 38.1306 274.915 38.6195C275.36 39.0194 275.626 39.5971 275.626 40.3081C275.626 41.4635 274.915 42.2634 273.982 42.5744V42.6189C274.649 42.841 275.049 43.4632 275.271 44.3964C275.537 45.6406 275.76 46.4849 275.937 46.796H274.782C274.649 46.5294 274.426 45.7739 274.204 44.7074C273.938 43.5076 273.493 43.0188 272.427 42.9744H271.36V46.796H270.205V38.0862ZM271.36 42.0856H272.516C273.715 42.0856 274.515 41.419 274.515 40.397C274.515 39.2416 273.671 38.7528 272.471 38.7528C271.938 38.7528 271.538 38.7972 271.36 38.8416V42.0856Z" fill="white"/>
<path d="M283.27 37.9532H282.115V46.7519H283.27V37.9532Z" fill="white"/>
<path d="M286.292 46.7962V37.9976H287.537L290.381 42.4413C291.047 43.4634 291.536 44.3966 291.981 45.2854H292.025C291.936 44.13 291.892 43.019 291.892 41.6859V37.9976H292.958V46.7962H291.803L289.003 42.308C288.381 41.3304 287.803 40.3083 287.359 39.3751H287.315C287.359 40.4861 287.403 41.5526 287.403 43.019V46.7962H286.292Z" fill="white"/>
<path d="M295.934 46.7962V37.9976H297.179L300.023 42.4413C300.689 43.4634 301.178 44.3966 301.622 45.2854H301.667C301.578 44.13 301.533 43.019 301.533 41.6859V37.9976H302.6V46.7962H301.4L298.601 42.308C297.978 41.3304 297.401 40.3083 296.956 39.3751H296.912C296.956 40.4861 297.001 41.5526 297.001 43.019V46.7962H295.934Z" fill="white"/>
<path d="M313.087 42.3082C313.087 45.3299 311.265 46.9297 308.998 46.9297C306.688 46.9297 305.043 45.1077 305.043 42.4415C305.043 39.6419 306.777 37.8199 309.132 37.8199C311.531 37.8199 313.087 39.6863 313.087 42.3082ZM306.243 42.4415C306.243 44.3079 307.265 45.9965 309.043 45.9965C310.865 45.9965 311.887 44.3523 311.887 42.3526C311.887 40.6195 310.954 38.7531 309.087 38.7531C307.221 38.7531 306.243 40.4862 306.243 42.4415Z" fill="white"/>
<path d="M317.576 46.7962L314.687 37.9976H315.932L317.309 42.3525C317.709 43.5523 318.02 44.6188 318.242 45.6409H318.287C318.553 44.6188 318.909 43.5079 319.309 42.3525L320.82 37.9976H322.019L318.864 46.7962H317.576Z" fill="white"/>
<path d="M324.64 43.9968L323.706 46.7519H322.551L325.528 37.9532H326.906L329.928 46.7519H328.728L327.795 43.9968H324.64ZM327.528 43.108L326.684 40.5751C326.506 39.9974 326.373 39.4641 326.239 38.9753H326.195C326.062 39.5086 325.928 40.0418 325.751 40.5751L324.906 43.108H327.528Z" fill="white"/>
<path d="M332.95 38.9308H330.24V37.9976H336.772V38.9308H334.061V46.7962H332.95V38.9308Z" fill="white"/>
<path d="M339.971 37.9532H338.815V46.7519H339.971V37.9532Z" fill="white"/>
<path d="M350.504 42.3082C350.504 45.3299 348.682 46.9297 346.415 46.9297C344.105 46.9297 342.46 45.1077 342.46 42.4415C342.46 39.6419 344.194 37.8199 346.549 37.8199C348.948 37.8199 350.504 39.6863 350.504 42.3082ZM343.66 42.4415C343.66 44.3079 344.682 45.9965 346.46 45.9965C348.282 45.9965 349.304 44.3523 349.304 42.3526C349.304 40.6195 348.371 38.7531 346.504 38.7531C344.593 38.7531 343.66 40.4862 343.66 42.4415Z" fill="white"/>
<path d="M353.036 46.7962V37.9976H354.281L357.125 42.4413C357.791 43.4634 358.28 44.3966 358.724 45.2854H358.769C358.68 44.13 358.636 43.019 358.636 41.6859V37.9976H359.702V46.7962H358.547L355.747 42.308C355.125 41.3304 354.547 40.3083 354.103 39.3751H354.058C354.103 40.4861 354.147 41.5526 354.147 43.019V46.7962H353.036Z" fill="white"/>
<path d="M367.613 38.9308H364.946V37.9976H371.479V38.9308H368.768V46.7962H367.613V38.9308Z" fill="white"/>
<path d="M380.676 42.3082C380.676 45.3299 378.854 46.9297 376.588 46.9297C374.277 46.9297 372.633 45.1077 372.633 42.4415C372.633 39.6419 374.366 37.8199 376.721 37.8199C379.121 37.8199 380.676 39.6863 380.676 42.3082ZM373.833 42.4415C373.833 44.3079 374.855 45.9965 376.632 45.9965C378.454 45.9965 379.476 44.3523 379.476 42.3526C379.476 40.6195 378.543 38.7531 376.677 38.7531C374.766 38.7531 373.833 40.4862 373.833 42.4415Z" fill="white"/>
<path d="M388.143 37.9532H386.988V46.7519H388.143V37.9532Z" fill="white"/>
<path d="M398.587 42.9302C398.542 41.6859 398.453 40.2194 398.453 39.1085H398.409C398.098 40.1306 397.742 41.2415 397.298 42.4413L395.743 46.7074H394.898L393.476 42.5302C393.076 41.286 392.721 40.175 392.454 39.1085H392.41C392.365 40.2194 392.321 41.6859 392.232 43.019L392.01 46.7962H390.943L391.565 37.9976H393.032L394.543 42.2636C394.898 43.3301 395.209 44.3077 395.432 45.2409H395.476C395.698 44.3522 396.009 43.3745 396.409 42.2636L397.965 37.9976H399.431L399.964 46.7962H398.853L398.587 42.9302Z" fill="white"/>
<path d="M402.717 38.0862C403.25 37.9973 404.006 37.9084 404.895 37.9084C406.005 37.9084 406.85 38.1751 407.383 38.6195C407.872 39.0194 408.138 39.686 408.138 40.4414C408.138 41.2413 407.916 41.8634 407.472 42.3078C406.85 42.9299 405.872 43.2854 404.761 43.2854C404.406 43.2854 404.095 43.2854 403.828 43.1965V46.7071H402.717V38.0862ZM403.872 42.3078C404.139 42.3522 404.45 42.3967 404.806 42.3967C406.183 42.3967 407.028 41.7301 407.028 40.5303C407.028 39.3749 406.183 38.7972 404.939 38.7972C404.45 38.7972 404.05 38.8416 403.872 38.8861V42.3078Z" fill="white"/>
<path d="M411.074 43.9968L410.141 46.7519H408.986L411.963 37.9532H413.341L416.363 46.7519H415.163L414.23 43.9968H411.074ZM413.963 43.108L413.119 40.5751C412.941 39.9974 412.808 39.4641 412.674 38.9753H412.63C412.496 39.5086 412.363 40.0418 412.185 40.5751L411.341 43.108H413.963Z" fill="white"/>
<path d="M424.625 46.4853C424.225 46.7075 423.38 46.8853 422.314 46.8853C419.825 46.8853 417.959 45.3299 417.959 42.4415C417.959 39.6863 419.825 37.8199 422.581 37.8199C423.691 37.8199 424.358 38.0421 424.669 38.2199L424.402 39.1531C423.958 38.9309 423.38 38.7976 422.625 38.7976C420.581 38.7976 419.203 40.1307 419.203 42.4415C419.203 44.6189 420.448 45.9965 422.581 45.9965C423.292 45.9965 424.003 45.8632 424.447 45.641L424.625 46.4853Z" fill="white"/>
<path d="M429.16 38.9308H426.493V37.9976H432.981V38.9308H430.315V46.7962H429.16V38.9308Z" fill="white"/>
<path d="M99.163 76.3474L91.8752 53.8175H96.3635L99.4297 64.0382C100.318 66.8822 101.029 69.504 101.652 72.2592H101.696C102.318 69.5929 103.118 66.8378 104.007 64.127L107.295 53.8175H111.65L103.873 76.3474H99.163Z" fill="white"/>
<path d="M116.628 69.9484L114.673 76.3474H110.451L117.65 53.8175H122.894L130.226 76.3474H125.826L123.782 69.9484H116.628ZM123.071 66.8378L121.294 61.283C120.849 59.9055 120.494 58.3946 120.138 57.0615H120.094C119.783 58.3502 119.427 59.9499 119.027 61.283L117.294 66.8378H123.071Z" fill="white"/>
<path d="M140.047 76.3472V53.8173H144.713L150.535 63.4603C152.046 65.9488 153.334 68.5706 154.356 71.0147H154.401C154.134 67.9929 154.045 65.1045 154.045 61.6383V53.7728H157.867V76.3028H153.645L147.78 66.4376C146.358 63.9491 144.847 61.1939 143.736 58.661L143.647 58.7054C143.825 61.5939 143.869 64.5712 143.869 68.304V76.3472H140.047Z" fill="white"/>
<path d="M165.198 69.371C165.287 72.3039 167.598 73.5926 170.219 73.5926C172.13 73.5926 173.508 73.326 174.708 72.8816L175.33 75.7256C173.908 76.3033 171.997 76.7477 169.642 76.7477C164.354 76.7477 161.243 73.5037 161.243 68.5267C161.243 64.0385 163.998 59.7725 169.197 59.7725C174.485 59.7725 176.218 64.1274 176.218 67.6824C176.218 68.4378 176.174 69.06 176.085 69.4155H165.198V69.371ZM172.352 66.4826C172.397 64.9717 171.73 62.5276 168.975 62.5276C166.442 62.5276 165.376 64.8384 165.198 66.4826H172.352Z" fill="white"/>
<path d="M181.773 60.0831L183.461 67.4598C183.817 69.1929 184.172 70.9704 184.484 72.7479H184.528C184.884 70.9704 185.417 69.1929 185.861 67.5042L187.95 60.0831H191.283L193.327 67.2821C193.815 69.1929 194.26 70.9704 194.615 72.7035H194.704C194.971 70.926 195.326 69.1484 195.771 67.2821L197.593 60.0831H201.637L196.526 76.3474H192.705L190.749 69.7261C190.26 68.0375 189.861 66.4822 189.505 64.5269H189.416C189.105 66.5266 188.661 68.1264 188.172 69.7261L186.083 76.3474H182.262L177.462 60.0831H181.773Z" fill="white"/>
<path d="M223.724 66.3489H215.236V72.9702H224.746V76.3474H211.148V53.8175H224.257V57.1948H215.236V63.0161H223.724V66.3489Z" fill="white"/>
<path d="M228.033 64.927C228.033 63.0606 227.989 61.5053 227.9 60.0833H231.5L231.722 62.5274H231.811C232.522 61.2387 234.299 59.7278 236.965 59.7278C239.809 59.7278 242.742 61.5497 242.742 66.7045V76.3475H238.654V67.1489C238.654 64.7937 237.765 63.0606 235.543 63.0606C233.899 63.0606 232.788 64.216 232.344 65.4602C232.211 65.8157 232.166 66.349 232.166 66.7934V76.3475H228.033V64.927Z" fill="white"/>
<path d="M261.897 60.0828C261.852 61.1938 261.763 62.5269 261.763 64.7488V73.9918C261.763 77.4135 261.052 79.8576 259.364 81.3685C257.675 82.8794 255.32 83.3238 253.098 83.3238C251.01 83.3238 248.832 82.8794 247.41 82.0351L248.299 78.9244C249.321 79.5021 251.054 80.1687 253.054 80.1687C255.72 80.1687 257.72 78.7467 257.72 75.2361V73.8141H257.675C256.742 75.2361 255.053 76.2137 252.92 76.2137C248.877 76.2137 245.988 72.8809 245.988 68.2594C245.988 62.9268 249.454 59.6829 253.365 59.6829C255.853 59.6829 257.32 60.8827 258.075 62.2158H258.12L258.297 60.0384H261.897V60.0828ZM257.631 66.5707C257.631 66.2152 257.586 65.8153 257.497 65.4598C257.053 63.9489 255.898 62.838 254.165 62.838C251.854 62.838 250.165 64.8376 250.165 68.126C250.165 70.8812 251.587 73.1475 254.12 73.1475C255.675 73.1475 257.009 72.1254 257.453 70.659C257.542 70.2146 257.631 69.6369 257.631 69.1926V66.5707Z" fill="white"/>
<path d="M270.162 52.6177H266.029V76.3474H270.162V52.6177Z" fill="white"/>
<path d="M283.623 76.3475L283.357 74.5256H283.268C282.246 75.8143 280.557 76.703 278.468 76.703C275.18 76.703 273.358 74.3478 273.358 71.8593C273.358 67.771 277.002 65.6824 283.001 65.7269V65.4602C283.001 64.3937 282.557 62.6162 279.713 62.6162C278.113 62.6162 276.424 63.1051 275.358 63.8161L274.558 61.1498C275.758 60.4388 277.846 59.7278 280.424 59.7278C285.623 59.7278 287.134 63.0162 287.134 66.5712V72.437C287.134 73.9034 287.178 75.3254 287.356 76.3475H283.623ZM283.09 68.3932C280.202 68.3487 277.402 68.9708 277.402 71.4149C277.402 73.0147 278.424 73.7701 279.757 73.7701C281.401 73.7701 282.601 72.7036 282.957 71.5482C283.046 71.2372 283.09 70.9261 283.09 70.6595V68.3932Z" fill="white"/>
<path d="M291.314 64.927C291.314 63.0606 291.269 61.5053 291.18 60.0833H294.78L295.002 62.5274H295.091C295.802 61.2387 297.579 59.7278 300.246 59.7278C303.09 59.7278 306.023 61.5497 306.023 66.7045V76.3475H301.934V67.1489C301.934 64.7937 301.046 63.0606 298.824 63.0606C297.18 63.0606 296.069 64.216 295.624 65.4602C295.491 65.8157 295.446 66.349 295.446 66.7934V76.3475H291.314V64.927Z" fill="white"/>
<path d="M325.265 52.6177V71.7703C325.265 73.459 325.31 75.2365 325.398 76.3474H321.71L321.532 73.77H321.488C320.51 75.592 318.555 76.7029 316.155 76.7029C312.289 76.7029 309.223 73.4145 309.223 68.3931C309.179 62.9717 312.6 59.7277 316.511 59.7277C318.733 59.7277 320.333 60.6609 321.088 61.8607H321.132V52.6177H325.265ZM321.177 66.8378C321.177 66.4823 321.132 66.1267 321.088 65.7712C320.732 64.1715 319.399 62.8828 317.533 62.8828C314.911 62.8828 313.445 65.238 313.445 68.2598C313.445 71.2371 314.911 73.4145 317.533 73.4145C319.222 73.4145 320.688 72.2592 321.088 70.5261C321.177 70.1706 321.221 69.7706 321.221 69.3263V66.8378H321.177Z" fill="white"/>
<path d="M352.637 75.6809C351.66 76.1698 349.527 76.703 346.816 76.703C339.662 76.703 335.307 72.2148 335.307 65.3714C335.307 57.9503 340.461 53.462 347.349 53.462C350.06 53.462 352.015 54.0397 352.815 54.4841L351.926 57.7725C350.86 57.2837 349.393 56.8838 347.527 56.8838C342.95 56.8838 339.662 59.7722 339.662 65.1492C339.662 70.0818 342.55 73.2813 347.527 73.2813C349.216 73.2813 350.949 72.9258 352.015 72.437L352.637 75.6809Z" fill="white"/>
<path d="M358.191 69.371C358.28 72.3039 360.591 73.5926 363.213 73.5926C365.124 73.5926 366.501 73.326 367.701 72.8816L368.323 75.7256C366.901 76.3033 364.99 76.7477 362.635 76.7477C357.347 76.7477 354.236 73.5037 354.236 68.5267C354.236 64.0385 356.991 59.7725 362.191 59.7725C367.479 59.7725 369.212 64.1274 369.212 67.6824C369.212 68.4378 369.167 69.06 369.079 69.4155H358.191V69.371ZM365.346 66.4826C365.39 64.9717 364.724 62.5276 361.968 62.5276C359.436 62.5276 358.369 64.8384 358.191 66.4826H365.346Z" fill="white"/>
<path d="M372.412 64.927C372.412 63.0606 372.368 61.5053 372.279 60.0833H375.878L376.1 62.5274H376.189C376.9 61.2387 378.678 59.7278 381.344 59.7278C384.188 59.7278 387.121 61.5497 387.121 66.7045V76.3475H383.033V67.1489C383.033 64.7937 382.144 63.0606 379.922 63.0606C378.278 63.0606 377.167 64.216 376.723 65.4602C376.589 65.8157 376.545 66.349 376.545 66.7934V76.3475H372.412V64.927Z" fill="white"/>
<path d="M395.92 55.4171V60.0831H399.831V63.1493H395.92V70.3482C395.92 72.3035 396.454 73.37 398.009 73.37C398.72 73.37 399.253 73.2811 399.609 73.1478L399.697 76.3029C399.075 76.5251 398.009 76.7028 396.72 76.7028C395.209 76.7028 393.965 76.214 393.165 75.3697C392.276 74.4365 391.876 72.97 391.876 70.837V63.1937H389.521V60.1275H391.876V56.4392L395.92 55.4171Z" fill="white"/>
<path d="M405.518 69.371C405.607 72.3039 407.917 73.5926 410.539 73.5926C412.45 73.5926 413.828 73.326 415.027 72.8816L415.649 75.7256C414.227 76.3033 412.317 76.7477 409.961 76.7477C404.673 76.7477 401.563 73.5037 401.563 68.5267C401.563 64.0385 404.318 59.7725 409.517 59.7725C414.805 59.7725 416.538 64.1274 416.538 67.6824C416.538 68.4378 416.494 69.06 416.405 69.4155H405.518V69.371ZM412.672 66.4826C412.717 64.9717 412.05 62.5276 409.295 62.5276C406.762 62.5276 405.695 64.8384 405.518 66.4826H412.672Z" fill="white"/>
<path d="M419.695 65.3269C419.695 63.105 419.651 61.5497 419.562 60.0833H423.117L423.25 63.1939H423.384C424.184 60.8832 426.094 59.7278 427.827 59.7278C428.227 59.7278 428.45 59.7722 428.805 59.8167V63.6827C428.45 63.6383 428.094 63.5494 427.605 63.5494C425.65 63.5494 424.317 64.8381 423.917 66.6601C423.828 67.0156 423.784 67.46 423.784 67.9488V76.3475H419.695V65.3269Z" fill="white"/>
<path d="M94.0547 83.3682H107.031V86.7454H98.143V92.9667H106.408V96.344H98.143V105.898H94.0547V83.3682Z" fill="white"/>
<path d="M125.25 97.5883C125.25 103.587 121.028 106.254 116.895 106.254C112.274 106.254 108.763 103.099 108.763 97.855C108.763 92.5224 112.274 89.234 117.162 89.234C122.006 89.234 125.25 92.6557 125.25 97.5883ZM112.985 97.7661C112.985 100.921 114.54 103.276 117.029 103.276C119.384 103.276 120.984 100.966 120.984 97.6772C120.984 95.1442 119.828 92.2113 117.029 92.2113C114.185 92.2558 112.985 95.0554 112.985 97.7661Z" fill="white"/>
<path d="M128.493 94.878C128.493 92.6561 128.449 91.1008 128.36 89.6343H131.915L132.048 92.745H132.182C132.981 90.4342 134.892 89.2788 136.625 89.2788C137.025 89.2788 137.247 89.3233 137.603 89.3677V93.2338C137.247 93.1893 136.892 93.1004 136.403 93.1004C134.448 93.1004 133.115 94.3891 132.715 96.2111C132.67 96.5666 132.581 97.011 132.581 97.4998V105.899H128.493V94.878Z" fill="white"/>
<path d="M151.289 83.3682H147.201V105.898H151.289V83.3682Z" fill="white"/>
<path d="M155.91 94.478C155.91 92.6116 155.866 91.0563 155.777 89.6343H159.376L159.599 92.0784H159.687C160.398 90.7897 162.176 89.2788 164.842 89.2788C167.686 89.2788 170.619 91.1008 170.619 96.2555V105.899H166.531V96.6999C166.531 94.3447 165.642 92.6116 163.42 92.6116C161.776 92.6116 160.665 93.767 160.221 95.0113C160.087 95.3668 160.043 95.9 160.043 96.3444V105.899H155.91V94.478Z" fill="white"/>
<path d="M174.887 94.478C174.887 92.6116 174.843 91.0563 174.754 89.6343H178.353L178.576 92.0784H178.664C179.375 90.7897 181.153 89.2788 183.819 89.2788C186.663 89.2788 189.596 91.1008 189.596 96.2555V105.899H185.508V96.6999C185.508 94.3447 184.619 92.6116 182.397 92.6116C180.753 92.6116 179.642 93.767 179.198 95.0113C179.064 95.3668 179.02 95.9 179.02 96.3444V105.899H174.887V94.478Z" fill="white"/>
<path d="M209.324 97.5883C209.324 103.587 205.103 106.254 200.97 106.254C196.348 106.254 192.838 103.099 192.838 97.855C192.838 92.5224 196.348 89.234 201.237 89.234C206.08 89.234 209.324 92.6557 209.324 97.5883ZM197.059 97.7661C197.059 100.921 198.615 103.276 201.103 103.276C203.459 103.276 205.058 100.966 205.058 97.6772C205.058 95.1442 203.903 92.2113 201.103 92.2113C198.259 92.2558 197.059 95.0554 197.059 97.7661Z" fill="white"/>
<path d="M214.925 89.6344L217.547 97.8998C218.036 99.3218 218.347 100.655 218.658 101.988H218.747C219.058 100.655 219.413 99.3663 219.858 97.8998L222.435 89.6344H226.79L220.569 105.899H216.525L210.481 89.6344H214.925Z" fill="white"/>
<path d="M238.075 105.899L237.808 104.077H237.719C236.697 105.365 235.009 106.254 232.92 106.254C229.632 106.254 227.81 103.899 227.81 101.41C227.81 97.322 231.454 95.2335 237.453 95.2779V95.0113C237.453 93.9448 237.008 92.1673 234.164 92.1673C232.565 92.1673 230.876 92.6561 229.81 93.3671L229.01 90.7008C230.209 89.9898 232.298 89.2788 234.875 89.2788C240.075 89.2788 241.586 92.5672 241.586 96.1222V101.988C241.586 103.454 241.63 104.876 241.808 105.899H238.075ZM237.542 97.9442C234.653 97.8997 231.854 98.5219 231.854 100.966C231.854 102.566 232.876 103.321 234.209 103.321C235.853 103.321 237.053 102.255 237.408 101.099C237.497 100.788 237.542 100.477 237.542 100.21V97.9442Z" fill="white"/>
<path d="M250.297 84.9683V89.6342H254.207V92.7004H250.297V99.8549C250.297 101.81 250.83 102.877 252.385 102.877C253.096 102.877 253.629 102.788 253.985 102.654L254.074 105.81C253.452 106.032 252.385 106.21 251.096 106.21C249.585 106.21 248.341 105.721 247.541 104.876C246.653 103.943 246.253 102.477 246.253 100.344V92.7004H243.897V89.6342H246.253V85.9459L250.297 84.9683Z" fill="white"/>
<path d="M261.54 85.0571C261.54 86.3014 260.651 87.279 259.185 87.279C257.807 87.279 256.918 86.3014 256.918 85.0571C256.918 83.7684 257.852 82.8352 259.229 82.8352C260.651 82.8352 261.496 83.8128 261.54 85.0571ZM257.185 89.6342H261.318V105.898H257.185V89.6342Z" fill="white"/>
<path d="M281.046 97.5883C281.046 103.587 276.825 106.254 272.692 106.254C268.07 106.254 264.56 103.099 264.56 97.855C264.56 92.5224 268.07 89.234 272.959 89.234C277.802 89.234 281.046 92.6557 281.046 97.5883ZM268.781 97.7661C268.781 100.921 270.337 103.276 272.825 103.276C275.18 103.276 276.78 100.966 276.78 97.6772C276.78 95.1442 275.625 92.2113 272.825 92.2113C269.981 92.2558 268.781 95.0554 268.781 97.7661Z" fill="white"/>
<path d="M284.29 94.478C284.29 92.6116 284.245 91.0563 284.156 89.6343H287.756L287.978 92.0784H288.067C288.778 90.7897 290.556 89.2788 293.222 89.2788C296.066 89.2788 298.999 91.1008 298.999 96.2555V105.899H294.91V96.6999C294.91 94.3447 294.022 92.6116 291.8 92.6116C290.156 92.6116 289.045 93.767 288.6 95.0113C288.467 95.3668 288.423 95.9 288.423 96.3444V105.899H284.29V94.478Z" fill="white"/>
<path d="M322.819 95.8996H314.331V102.521H323.797V105.898H310.199V83.3682H323.308V86.7454H314.331V92.5668H322.819V95.8996Z" fill="white"/>
<path d="M329.839 89.6345L331.795 92.7007C332.328 93.5895 332.817 94.3894 333.261 95.1892H333.35C333.839 94.3005 334.283 93.4562 334.772 92.6119L336.594 89.5901H341.082L335.616 97.4111L341.171 105.854H336.505L334.505 102.61C333.972 101.722 333.483 100.877 333.039 99.9885H332.95C332.461 100.922 332.017 101.722 331.484 102.61L329.617 105.854H325.084L330.728 97.5889L325.307 89.5901H329.839V89.6345Z" fill="white"/>
<path d="M354.814 105.365C353.925 105.765 352.237 106.21 350.192 106.21C345.127 106.21 341.794 102.966 341.794 97.9442C341.794 93.056 345.127 89.2788 350.859 89.2788C352.37 89.2788 353.881 89.6343 354.814 90.0343L354.103 93.1004C353.436 92.7894 352.459 92.4783 350.992 92.4783C347.837 92.4783 345.971 94.7891 346.015 97.7664C346.015 101.099 348.193 103.01 350.992 103.01C352.414 103.01 353.436 102.699 354.236 102.388L354.814 105.365Z" fill="white"/>
<path d="M360.325 98.8774C360.414 101.81 362.725 103.099 365.347 103.099C367.258 103.099 368.635 102.832 369.835 102.388L370.457 105.232C369.035 105.81 367.124 106.254 364.769 106.254C359.481 106.254 356.37 103.01 356.37 98.0331C356.37 93.5448 359.125 89.2788 364.325 89.2788C369.613 89.2788 371.346 93.6337 371.346 97.1887C371.346 97.9442 371.301 98.5663 371.213 98.9218H360.325V98.8774ZM367.48 96.0334C367.524 94.5225 366.858 92.0784 364.103 92.0784C361.57 92.0784 360.503 94.3892 360.325 96.0334H367.48Z" fill="white"/>
<path d="M378.634 82.1683H374.501V105.898H378.634V82.1683Z" fill="white"/>
<path d="M387.077 82.1683H382.944V105.898H387.077V82.1683Z" fill="white"/>
<path d="M394.318 98.8774C394.407 101.81 396.718 103.099 399.34 103.099C401.251 103.099 402.628 102.832 403.828 102.388L404.45 105.232C403.028 105.81 401.117 106.254 398.762 106.254C393.474 106.254 390.363 103.01 390.363 98.0331C390.363 93.5448 393.118 89.2788 398.318 89.2788C403.606 89.2788 405.339 93.6337 405.339 97.1887C405.339 97.9442 405.294 98.5663 405.205 98.9218H394.318V98.8774ZM401.473 96.0334C401.517 94.5225 400.851 92.0784 398.095 92.0784C395.562 92.0784 394.496 94.3892 394.318 96.0334H401.473Z" fill="white"/>
<path d="M408.495 94.478C408.495 92.6116 408.451 91.0563 408.362 89.6343H411.962L412.184 92.0784H412.273C412.984 90.7897 414.761 89.2788 417.427 89.2788C420.271 89.2788 423.204 91.1008 423.204 96.2555V105.899H419.16V96.6999C419.16 94.3447 418.272 92.6116 416.05 92.6116C414.406 92.6116 413.295 93.767 412.85 95.0113C412.717 95.3668 412.673 95.9 412.673 96.3444V105.899H408.495V94.478Z" fill="white"/>
<path d="M439.467 105.365C438.578 105.765 436.889 106.21 434.845 106.21C429.779 106.21 426.446 102.966 426.446 97.9442C426.446 93.056 429.779 89.2788 435.512 89.2788C437.022 89.2788 438.533 89.6343 439.467 90.0343L438.756 93.1004C438.089 92.7894 437.111 92.4783 435.645 92.4783C432.49 92.4783 430.623 94.7891 430.668 97.7664C430.668 101.099 432.845 103.01 435.645 103.01C437.067 103.01 438.089 102.699 438.889 102.388L439.467 105.365Z" fill="white"/>
<path d="M444.98 98.8774C445.069 101.81 447.38 103.099 450.001 103.099C451.912 103.099 453.29 102.832 454.49 102.388L455.112 105.232C453.69 105.81 451.779 106.254 449.424 106.254C444.136 106.254 441.025 103.01 441.025 98.0331C441.025 93.5448 443.78 89.2788 448.979 89.2788C454.267 89.2788 456 93.6337 456 97.1887C456 97.9442 455.956 98.5663 455.867 98.9218H444.98V98.8774ZM452.09 96.0334C452.134 94.5225 451.468 92.0784 448.713 92.0784C446.18 92.0784 445.113 94.3892 444.935 96.0334H452.09Z" fill="white"/>
<path d="M109.386 121.585L106.497 112.786H107.742L109.119 117.141C109.519 118.341 109.83 119.407 110.052 120.429H110.097C110.363 119.407 110.719 118.296 111.119 117.141L112.63 112.786H113.83L110.674 121.585H109.386Z" fill="white"/>
<path d="M116.939 112.742H115.783V121.54H116.939V112.742Z" fill="white"/>
<path d="M119.783 120.163C120.272 120.474 121.028 120.741 121.828 120.741C122.983 120.741 123.65 120.119 123.65 119.23C123.65 118.386 123.161 117.941 122.005 117.497C120.583 116.964 119.695 116.253 119.695 115.008C119.695 113.631 120.85 112.609 122.539 112.609C123.427 112.609 124.094 112.831 124.494 113.053L124.183 113.986C123.916 113.808 123.294 113.586 122.494 113.586C121.294 113.586 120.85 114.297 120.85 114.919C120.85 115.764 121.383 116.164 122.583 116.608C124.094 117.186 124.849 117.897 124.849 119.185C124.849 120.563 123.827 121.718 121.783 121.718C120.939 121.718 120.006 121.452 119.517 121.141L119.783 120.163Z" fill="white"/>
<path d="M127.471 121.585V112.742H128.715L131.559 117.186C132.226 118.208 132.714 119.141 133.159 120.03H133.203C133.114 118.874 133.07 117.763 133.07 116.43V112.742H134.136V121.54H132.981L130.181 117.052C129.559 116.075 128.982 115.053 128.537 114.119H128.493C128.537 115.23 128.582 116.297 128.582 117.763V121.54H127.471V121.585Z" fill="white"/>
<path d="M143.024 114.164H142.979L141.513 114.964L141.291 114.075L143.112 113.053H144.135V121.585H143.024V114.164Z" fill="white"/>
<path d="M98.807 111.631C96.674 111.631 94.8965 113.364 94.8965 115.542C94.8965 118.475 98.807 122.252 98.807 122.252C98.807 122.252 102.718 118.43 102.718 115.542C102.718 113.364 100.984 111.631 98.807 111.631ZM98.807 117.497C97.6961 117.497 96.8518 116.608 96.8518 115.542C96.8518 114.431 97.7405 113.586 98.807 113.586C99.918 113.586 100.762 114.475 100.762 115.542C100.807 116.608 99.918 117.497 98.807 117.497Z" fill="white"/>
<path d="M94.6313 3.24726L94.9423 26.2216L87.2102 22L92.5871 7.55771L81.7443 20.7557L76.1896 20.578L94.6313 3.24726ZM76.4118 37.6421C76.6784 39.0641 76.8117 40.4417 76.8117 41.8637C76.8117 64.5714 29.0411 85.3238 12.6435 74.481C-3.754 63.6382 -5.93145 14.0012 16.4652 2.62513C36.1067 -7.32892 67.5687 12.8014 75.1231 33.1983C70.1016 40.4861 61.3474 52.3954 48.9048 56.9281C45.572 58.1279 42.7279 58.039 40.8615 56.5726C39.2173 55.2839 38.4175 53.1064 38.5952 50.1735C48.9492 43.5079 56.8147 34.9314 57.7479 29.2878C58.1034 27.1992 57.5257 25.2439 56.1481 23.7775C54.7261 22.2666 52.682 21.4667 50.5934 21.6889C39.8395 22.711 30.4631 37.6421 30.1965 49.2848C25.7971 51.5511 22.2421 52.7509 19.6647 52.8398C18.6426 52.8842 17.8872 52.5732 17.3984 51.951C16.3319 50.529 16.4652 47.4184 17.7539 43.3301C19.3092 38.5308 21.8422 34.3981 23.9307 31.1097C25.886 27.9546 27.1747 25.8661 26.6414 24.6218C26.1971 23.5998 24.7306 22.7554 23.0864 22.5777C21.8866 22.4444 18.8204 22.5777 16.5096 26.0438C9.31071 36.7978 6.77776 47.0629 9.75509 53.4619C10.9549 56.0837 13.0879 57.7724 15.532 58.039C19.6203 58.4834 24.8639 57.2391 30.7742 54.484C31.2185 56.1282 31.9295 57.5502 32.9072 58.75C34.2403 60.4387 36.9066 61.8162 40.3727 62.3495C44.9943 63.0605 50.9489 62.2606 57.0369 58.6611C64.7691 54.084 70.6793 46.4852 74.2788 40.9305C75.1231 39.864 75.7896 38.7086 76.4118 37.6421ZM25.7083 17.3785C26.2859 17.9117 26.997 18.2672 27.8413 18.4005C28.1968 18.445 28.5967 18.4894 28.9967 18.445C30.2853 18.3561 31.4407 17.7784 32.3295 16.8452C33.5737 15.5565 34.2403 14.0901 34.1959 12.8014C34.1514 11.7793 33.7071 10.8461 32.8183 10.0462C31.1741 8.57979 27.9746 9.02417 26.1082 11.0239C25.2194 11.9571 24.6862 13.1124 24.5973 14.3123C24.464 15.5121 24.8639 16.5786 25.7083 17.3785ZM51.7932 27.377C51.7044 27.3325 51.6155 27.2881 51.5266 27.2881C51.3044 27.2437 51.0378 27.2881 50.7267 27.4214C49.2603 27.9991 47.1717 30.1321 45.172 33.1539C43.1723 36.1756 41.4392 39.7307 40.2394 43.3301C47.9716 37.9976 52.5487 31.8207 52.5042 28.799C52.4598 28.088 52.2376 27.6436 51.7932 27.377Z" fill="white"/>
</svg>
