<svg width="564" height="82" viewBox="0 0 564 82" fill="none" xmlns="http://www.w3.org/2000/svg">
<path d="M98.8618 46.1891L96.0486 37.5215H97.2651L98.6337 41.7793C99.0139 42.9578 99.318 44.0222 99.5461 45.0106H99.5841C99.8122 44.0222 100.192 42.9198 100.572 41.7793L102.055 37.4835H103.234L100.116 46.1511H98.8618V46.1891Z" fill="white"/>
<path d="M106.389 37.5215V41.133H110.609V37.5215H111.711V46.1891H110.609V42.1214H106.389V46.1891H105.286V37.5215H106.389Z" fill="white"/>
<path d="M119.048 42.5776L118.212 40.0685C118.022 39.4983 117.908 39.0041 117.756 38.4719H117.718C117.604 39.0041 117.452 39.4983 117.261 40.0305L116.425 42.5396H119.048V42.5776ZM116.197 43.4519L115.285 46.1891H114.106L117.071 37.5215H118.44L121.405 46.1891H120.227L119.314 43.4519H116.197Z" fill="white"/>
<path d="M127.678 46.1891V37.5215H128.894L131.669 41.9313C132.316 42.9577 132.81 43.8701 133.228 44.7445H133.266C133.152 43.566 133.152 42.5396 133.152 41.171V37.5595H134.216V46.2271H133.076L130.339 41.8173C129.73 40.8669 129.16 39.8785 128.704 38.9281H128.666C128.742 40.0305 128.742 41.0569 128.742 42.5015V46.2271H127.678V46.1891Z" fill="white"/>
<path d="M141.553 42.5776L140.717 40.0685C140.527 39.4983 140.413 39.0041 140.261 38.4719H140.223C140.109 39.0041 139.957 39.4983 139.767 40.0305L138.93 42.5396H141.553V42.5776ZM138.702 43.4519L137.79 46.1891H136.611L139.577 37.5215H140.945L143.91 46.1891H142.694L141.781 43.4519H138.702Z" fill="white"/>
<path d="M146.952 38.4719H144.328V37.5215H150.753V38.4719H148.092V46.1891H146.952V38.4719Z" fill="white"/>
<path d="M153.947 37.5215H152.844V46.1891H153.947V37.5215Z" fill="white"/>
<path d="M157.748 41.8934C157.748 43.7562 158.737 45.3909 160.523 45.3909C162.31 45.3909 163.298 43.7562 163.298 41.7794C163.298 40.0687 162.386 38.2439 160.523 38.2439C158.66 38.2819 157.748 39.9926 157.748 41.8934ZM164.477 41.7414C164.477 44.7446 162.652 46.3033 160.447 46.3033C158.166 46.3033 156.532 44.5165 156.532 41.8934C156.532 39.1183 158.242 37.3315 160.561 37.3315C162.956 37.3696 164.477 39.1943 164.477 41.7414Z" fill="white"/>
<path d="M167.062 46.1891V37.5215H168.279L171.054 41.9313C171.7 42.9577 172.194 43.8701 172.612 44.7445H172.65C172.536 43.566 172.536 42.5396 172.536 41.171V37.5595H173.601V46.2271H172.46L169.723 41.8173C169.115 40.8669 168.545 39.8785 168.088 38.9281H168.05C168.126 40.0305 168.126 41.0569 168.126 42.5015V46.2271H167.062V46.1891Z" fill="white"/>
<path d="M180.938 42.5776L180.101 40.0685C179.911 39.4983 179.797 39.0041 179.645 38.4719H179.607C179.493 39.0041 179.341 39.4983 179.151 40.0305L178.315 42.5396H180.938V42.5776ZM178.087 43.4519L177.174 46.1891H175.996L178.961 37.5215H180.329L183.295 46.1891H182.078L181.166 43.4519H178.087Z" fill="white"/>
<path d="M185.69 37.5215H186.792V45.2387H190.518V46.1891H185.69V37.5215Z" fill="white"/>
<path d="M202.835 45.8851C202.417 46.0752 201.58 46.3033 200.554 46.3033C198.121 46.3033 196.258 44.7446 196.258 41.8934C196.258 39.1943 198.083 37.3315 200.782 37.3315C201.846 37.3315 202.531 37.5596 202.835 37.7117L202.569 38.6241C202.151 38.434 201.542 38.2819 200.82 38.2819C198.767 38.2819 197.437 39.5745 197.437 41.8554C197.437 43.9843 198.653 45.3529 200.782 45.3529C201.466 45.3529 202.151 45.2008 202.607 45.0107L202.835 45.8851Z" fill="white"/>
<path d="M209.868 42.1214H206.484V45.2387H210.248V46.1891H205.382V37.5215H210.058V38.4339H206.484V41.209H209.868V42.1214Z" fill="white"/>
<path d="M212.833 46.1891V37.5215H214.049L216.825 41.9313C217.471 42.9577 217.965 43.8701 218.383 44.7445H218.421C218.307 43.566 218.307 42.5396 218.307 41.171V37.5595H219.372V46.2271H218.231L215.494 41.8173C214.886 40.8669 214.316 39.8785 213.859 38.9281H213.821C213.897 40.0305 213.897 41.0569 213.897 42.5015V46.2271H212.833V46.1891Z" fill="white"/>
<path d="M224.086 38.4719H221.463V37.5215H227.887V38.4719H225.226V46.1891H224.086V38.4719Z" fill="white"/>
<path d="M234.464 42.1214H231.081V45.2387H234.844V46.1891H229.978V37.5215H234.654V38.4339H231.081V41.209H234.464V42.1214Z" fill="white"/>
<path d="M238.57 41.5893H239.71C240.927 41.5893 241.687 40.943 241.687 39.9546C241.687 38.8521 240.889 38.3579 239.71 38.3199C239.178 38.3199 238.798 38.3579 238.608 38.434V41.5893H238.57ZM237.429 37.6356C237.999 37.5216 238.798 37.4456 239.596 37.4456C240.775 37.4456 241.573 37.6737 242.105 38.1679C242.523 38.548 242.789 39.1563 242.789 39.8025C242.789 40.943 242.067 41.7033 241.155 42.0075V42.0455C241.839 42.2736 242.219 42.8818 242.447 43.7942C242.713 45.0107 242.941 45.847 243.094 46.1892H241.953C241.801 45.9611 241.611 45.2008 241.383 44.0983C241.117 42.9198 240.661 42.4636 239.634 42.4256H238.57V46.1892H237.467V37.6356H237.429Z" fill="white"/>
<path d="M245.337 44.8206C245.831 45.1247 246.591 45.3908 247.351 45.3908C248.492 45.3908 249.176 44.7826 249.176 43.9082C249.176 43.1099 248.72 42.6157 247.541 42.1975C246.135 41.7033 245.26 40.943 245.26 39.7265C245.26 38.3579 246.363 37.3695 248.074 37.3695C248.948 37.3695 249.594 37.5596 249.974 37.7877L249.67 38.7001C249.366 38.548 248.796 38.2819 248.036 38.2819C246.857 38.2819 246.401 39.0042 246.401 39.5744C246.401 40.3728 246.933 40.7909 248.112 41.2471C249.594 41.8174 250.317 42.5397 250.317 43.7942C250.317 45.1247 249.328 46.3032 247.275 46.3032C246.439 46.3032 245.527 46.0751 245.07 45.733L245.337 44.8206Z" fill="white"/>
<path d="M256.855 37.5215H261.531V38.4339H257.958V41.3231H261.265V42.2735H257.958V46.1891H256.855V37.5215Z" fill="white"/>
<path d="M264.953 41.8934C264.953 43.7562 265.941 45.3909 267.728 45.3909C269.514 45.3909 270.503 43.7562 270.503 41.7794C270.503 40.0687 269.591 38.2439 267.728 38.2439C265.865 38.2819 264.953 39.9926 264.953 41.8934ZM271.681 41.7414C271.681 44.7446 269.857 46.3033 267.652 46.3033C265.371 46.3033 263.736 44.5165 263.736 41.8934C263.736 39.1183 265.447 37.3315 267.766 37.3315C270.123 37.3696 271.681 39.1943 271.681 41.7414Z" fill="white"/>
<path d="M275.369 41.5893H276.509C277.726 41.5893 278.486 40.943 278.486 39.9546C278.486 38.8521 277.688 38.3579 276.509 38.3199C275.977 38.3199 275.597 38.3579 275.407 38.434V41.5893H275.369ZM274.266 37.6356C274.837 37.5216 275.635 37.4456 276.433 37.4456C277.612 37.4456 278.41 37.6737 278.942 38.1679C279.361 38.548 279.627 39.1563 279.627 39.8025C279.627 40.943 278.904 41.7033 277.992 42.0075V42.0455C278.676 42.2736 279.056 42.8818 279.285 43.7942C279.551 45.0107 279.779 45.847 279.931 46.1892H278.79C278.638 45.9611 278.448 45.2008 278.22 44.0983C277.954 42.9198 277.498 42.4636 276.471 42.4256H275.369V46.1892H274.266V37.6356Z" fill="white"/>
<path d="M287.306 37.5215H286.203V46.1891H287.306V37.5215Z" fill="white"/>
<path d="M290.385 46.1891V37.5215H291.602L294.377 41.9313C295.023 42.9577 295.517 43.8701 295.935 44.7445H295.973C295.859 43.566 295.859 42.5396 295.859 41.171V37.5595H296.924V46.2271H295.783L293.046 41.8173C292.438 40.8669 291.868 39.8785 291.411 38.9281H291.373C291.449 40.0305 291.449 41.0569 291.449 42.5015V46.2271H290.385V46.1891Z" fill="white"/>
<path d="M300.003 46.1891V37.5215H301.22L303.995 41.9313C304.641 42.9577 305.135 43.8701 305.553 44.7445H305.591C305.477 43.566 305.477 42.5396 305.477 41.171V37.5595H306.542V46.2271H305.401L302.664 41.8173C302.056 40.8669 301.486 39.8785 301.03 38.9281H300.992C301.068 40.0305 301.068 41.0569 301.068 42.5015V46.2271H300.003V46.1891Z" fill="white"/>
<path d="M310.305 41.8934C310.305 43.7562 311.332 45.3909 313.081 45.3909C314.867 45.3909 315.856 43.7562 315.856 41.7794C315.856 40.0687 314.943 38.2439 313.081 38.2439C311.218 38.2819 310.305 39.9926 310.305 41.8934ZM317.034 41.7414C317.034 44.7446 315.209 46.3033 313.005 46.3033C310.724 46.3033 309.089 44.5165 309.089 41.8934C309.089 39.1183 310.8 37.3315 313.119 37.3315C315.514 37.3696 317.034 39.1943 317.034 41.7414Z" fill="white"/>
<path d="M321.52 46.1891L318.707 37.5215H319.923L321.292 41.7793C321.672 42.9578 321.976 44.0222 322.204 45.0106H322.242C322.47 44.0222 322.851 42.9198 323.231 41.7793L324.713 37.4835H325.892L322.775 46.1511H321.52V46.1891Z" fill="white"/>
<path d="M331.442 42.5776L330.606 40.0685C330.416 39.4983 330.302 39.0041 330.15 38.4719H330.111C329.997 39.0041 329.845 39.4983 329.655 40.0305L328.819 42.5396H331.442V42.5776ZM328.591 43.4519L327.678 46.1891H326.5L329.465 37.5215H330.834L333.799 46.1891H332.621L331.708 43.4519H328.591Z" fill="white"/>
<path d="M336.878 38.4719H334.255V37.5215H340.642V38.4719H338.019V46.1891H336.878V38.4719Z" fill="white"/>
<path d="M343.873 37.5215H342.771V46.1891H343.873V37.5215Z" fill="white"/>
<path d="M347.637 41.8934C347.637 43.7562 348.625 45.3909 350.412 45.3909C352.199 45.3909 353.187 43.7562 353.187 41.7794C353.187 40.0687 352.275 38.2439 350.412 38.2439C348.587 38.2819 347.637 39.9926 347.637 41.8934ZM354.404 41.7414C354.404 44.7446 352.579 46.3033 350.374 46.3033C348.093 46.3033 346.458 44.5165 346.458 41.8934C346.458 39.1183 348.169 37.3315 350.488 37.3315C352.845 37.3696 354.404 39.1943 354.404 41.7414Z" fill="white"/>
<path d="M356.989 46.1891V37.5215H358.205L360.98 41.9313C361.627 42.9577 362.121 43.8701 362.539 44.7445H362.577C362.463 43.566 362.463 42.5396 362.463 41.171V37.5595H363.528V46.2271H362.387L359.65 41.8173C359.042 40.8669 358.471 39.8785 358.015 38.9281H357.977C358.053 40.0305 358.053 41.0569 358.053 42.5015V46.2271H356.989V46.1891Z" fill="white"/>
<path d="M371.587 38.4719H368.926V37.5215H375.35V38.4719H372.689V46.1891H371.587V38.4719Z" fill="white"/>
<path d="M377.784 41.8934C377.784 43.7562 378.81 45.3909 380.559 45.3909C382.345 45.3909 383.334 43.7562 383.334 41.7794C383.334 40.0687 382.421 38.2439 380.559 38.2439C378.734 38.2819 377.784 39.9926 377.784 41.8934ZM384.512 41.7414C384.512 44.7446 382.688 46.3033 380.483 46.3033C378.202 46.3033 376.567 44.5165 376.567 41.8934C376.567 39.1183 378.278 37.3315 380.597 37.3315C382.992 37.3696 384.512 39.1943 384.512 41.7414Z" fill="white"/>
<path d="M392.077 37.5215H390.975V46.1891H392.077V37.5215Z" fill="white"/>
<path d="M402.494 42.3875C402.418 41.171 402.342 39.7264 402.38 38.6239H402.342C402.038 39.6504 401.695 40.7148 401.239 41.9313L399.719 46.1511H398.882L397.476 42.0073C397.057 40.7908 396.715 39.6504 396.487 38.6239H396.449C396.411 39.6884 396.373 41.171 396.297 42.4635L396.069 46.1891H395.005L395.613 37.5215H397.057L398.54 41.7032C398.882 42.7677 399.186 43.7181 399.414 44.6304H399.452C399.681 43.7561 399.985 42.8057 400.365 41.7032L401.923 37.5215H403.368L403.9 46.1891H402.798L402.494 42.3875Z" fill="white"/>
<path d="M407.816 41.7794C408.044 41.8554 408.386 41.8554 408.728 41.8554C410.097 41.8554 410.895 41.2091 410.895 39.9926C410.895 38.8521 410.097 38.2819 408.842 38.2819C408.348 38.2819 407.968 38.3199 407.778 38.3579V41.7794H407.816ZM406.675 37.5976C407.208 37.5216 407.93 37.4456 408.842 37.4456C409.945 37.4456 410.743 37.7117 411.275 38.1679C411.77 38.586 412.036 39.1943 412.036 39.9926C412.036 40.7909 411.808 41.3992 411.351 41.8554C410.743 42.5017 409.793 42.8058 408.69 42.8058C408.348 42.8058 408.044 42.8058 407.778 42.7298V46.2272H406.675V37.5976Z" fill="white"/>
<path d="M417.814 42.5776L416.978 40.0685C416.788 39.4983 416.674 39.0041 416.522 38.4719H416.483C416.369 39.0041 416.217 39.4983 416.027 40.0305L415.191 42.5396H417.814V42.5776ZM415.001 43.4519L414.089 46.1891H412.948L415.913 37.5215H417.282L420.247 46.1891H419.031L418.118 43.4519H415.001Z" fill="white"/>
<path d="M428.458 45.8851C428.04 46.0752 427.204 46.3033 426.178 46.3033C423.745 46.3033 421.882 44.7446 421.882 41.8934C421.882 39.1943 423.707 37.3315 426.406 37.3315C427.47 37.3315 428.154 37.5596 428.458 37.7117L428.192 38.6241C427.774 38.434 427.166 38.2819 426.444 38.2819C424.391 38.2819 423.06 39.5745 423.06 41.8554C423.06 43.9843 424.277 45.3529 426.406 45.3529C427.09 45.3529 427.774 45.2008 428.23 45.0107L428.458 45.8851Z" fill="white"/>
<path d="M433.02 38.4719H430.359V37.5215H436.784V38.4719H434.161V46.1891H433.02V38.4719Z" fill="white"/>
<path d="M50.6957 27.4474C49.2131 28.0176 47.1603 30.1465 45.1454 33.1498C43.1306 36.153 41.4199 39.7265 40.2034 43.338C47.9586 38.0158 52.5205 31.8192 52.4445 28.816C52.4445 28.1697 52.2164 27.7135 51.7602 27.4094C51.6842 27.3714 51.5701 27.3333 51.4941 27.2953C51.4561 27.2953 51.38 27.2953 51.342 27.2953C51.1139 27.3333 50.9238 27.3714 50.6957 27.4474ZM76.1663 20.6426L81.7166 20.7946L92.5891 7.60315L87.1909 22.0491L94.9081 26.3069L94.5659 3.34539L76.1663 20.6426ZM27.7722 18.4376C26.9359 18.3236 26.2136 17.9815 25.6433 17.4112C24.845 16.6129 24.4268 15.5104 24.5029 14.2939C24.5789 13.1154 25.1111 11.937 25.9855 10.9866C27.8863 9.00974 31.0796 8.55355 32.7143 10.0362C33.5886 10.8345 34.0448 11.7469 34.0829 12.8113C34.1209 14.1419 33.4746 15.5484 32.2201 16.841C31.3457 17.7534 30.1292 18.3616 28.8747 18.4376C28.7226 18.4376 28.5706 18.4376 28.4565 18.4376C28.2664 18.5137 28.0383 18.4757 27.7722 18.4376ZM28.1524 0C24.0087 0 20.055 0.798332 16.4815 2.62309C-5.94775 14.0278 -3.74284 63.6384 12.642 74.4729C15.037 76.0696 18.1162 76.9819 21.6137 77.2861H28.0383C48.5288 75.6134 76.7746 59.3426 76.7746 41.8554C76.7746 40.4868 76.6225 39.0802 76.3564 37.6356C75.7481 38.7381 75.0258 39.8405 74.3035 40.981C70.692 46.5313 64.7996 54.0964 57.0444 58.6963C50.9999 62.2698 44.9934 63.0682 40.3935 62.3839C36.972 61.8517 34.2729 60.4831 32.9424 58.7724C31.992 57.5939 31.2697 56.1493 30.8135 54.4766C24.921 57.2517 19.6749 58.4683 15.5692 58.0121C13.0981 57.746 11.0073 56.0733 9.79078 53.4502C6.82555 47.0255 9.33458 36.7612 16.5196 26.0408C18.8385 22.5814 21.8798 22.4673 23.0963 22.5814C24.731 22.7334 26.2136 23.5698 26.6698 24.5962C27.202 25.8507 25.9095 27.9416 23.9326 31.0969C21.8798 34.4043 19.2947 38.51 17.7741 43.3C16.4816 47.3677 16.3295 50.4849 17.3939 51.8915C17.8881 52.5378 18.6104 52.8039 19.6749 52.7659C22.2599 52.6518 25.7954 51.4734 30.2052 49.2304C30.4714 37.5976 39.8232 22.6954 50.5817 21.669C52.6345 21.4789 54.7254 22.2392 56.132 23.7599C57.5006 25.2425 58.0708 27.1813 57.7287 29.2721C56.8163 34.8985 48.947 43.49 38.5687 50.1428C38.3786 53.07 39.177 55.2749 40.8116 56.5295C42.6744 57.9741 45.5256 58.0881 48.871 56.8716C61.3021 52.3097 70.0458 40.4108 75.0639 33.1117C68.9433 16.5369 46.7801 0 28.1524 0Z" fill="white"/>
<path d="M93.5012 53.4501C95.2499 53.146 97.5309 52.9939 99.8879 52.9939C103.994 52.9939 106.845 53.8302 108.86 55.541C110.988 57.2897 112.281 59.8748 112.281 63.6383C112.281 67.5539 110.95 70.4812 108.86 72.3819C106.655 74.3588 103.195 75.3852 98.8994 75.3852C96.5425 75.3852 94.7937 75.2711 93.4632 75.0811V53.4501H93.5012ZM97.5309 72.0778C98.1011 72.1919 98.9375 72.1919 99.7358 72.1919C104.944 72.2299 108.061 69.3407 108.061 63.7524C108.099 58.8863 105.286 56.1112 100.268 56.1112C99.0135 56.1112 98.0631 56.2252 97.5309 56.3393V72.0778Z" fill="white"/>
<path d="M120.036 54.8188C120.036 56.0353 119.162 56.9857 117.756 56.9857C116.425 56.9857 115.551 56.0353 115.551 54.8188C115.551 53.5643 116.463 52.6139 117.794 52.6139C119.162 52.6139 119.998 53.5643 120.036 54.8188ZM115.741 75.1572V59.2667H119.808V75.1572H115.741Z" fill="white"/>
<path d="M138.626 59.2665C138.55 60.331 138.512 61.6615 138.512 63.8284V72.8382C138.512 76.1835 137.828 78.5405 136.155 80.0612C134.482 81.5438 132.201 82 130.035 82C128.02 82 125.853 81.5818 124.484 80.7454L125.359 77.7042C126.385 78.2744 128.058 78.9207 129.997 78.9207C132.62 78.9207 134.558 77.5521 134.558 74.1307V72.7621H134.482C133.57 74.1687 131.935 75.1191 129.845 75.1191C125.891 75.1191 123.078 71.8498 123.078 67.3639C123.078 62.1557 126.461 58.9624 130.301 58.9624C132.734 58.9624 134.14 60.1409 134.901 61.4334H134.977L135.129 59.3045H138.626V59.2665ZM134.482 65.6152C134.482 65.273 134.444 64.8548 134.368 64.5507C133.95 63.0681 132.81 61.9656 131.099 61.9656C128.856 61.9656 127.183 63.9425 127.183 67.1738C127.183 69.8729 128.552 72.0778 131.061 72.0778C132.582 72.0778 133.874 71.0894 134.33 69.6448C134.444 69.2267 134.482 68.6564 134.482 68.2002V65.6152Z" fill="white"/>
<path d="M146.952 54.8188C146.952 56.0353 146.077 56.9857 144.671 56.9857C143.34 56.9857 142.466 56.0353 142.466 54.8188C142.466 53.5643 143.378 52.6139 144.709 52.6139C146.077 52.6139 146.914 53.5643 146.952 54.8188ZM142.694 75.1572V59.2667H146.761V75.1572H142.694Z" fill="white"/>
<path d="M155.657 54.7046V59.2285H159.459V62.2317H155.657V69.2646C155.657 71.2034 156.189 72.1918 157.71 72.1918C158.394 72.1918 158.927 72.0778 159.269 72.0018L159.345 75.081C158.774 75.3091 157.71 75.4612 156.456 75.4612C154.973 75.4612 153.756 74.967 152.996 74.1687C152.16 73.2563 151.742 71.8117 151.742 69.7208V62.2317H149.461V59.2285H151.742V55.655L155.657 54.7046Z" fill="white"/>
<path d="M171.472 75.1571L171.206 73.4084H171.092C170.103 74.6629 168.431 75.5373 166.378 75.5373C163.184 75.5373 161.398 73.2183 161.398 70.7853C161.398 66.7556 164.971 64.7408 170.826 64.7788V64.5127C170.826 63.4863 170.407 61.7375 167.594 61.7375C166.036 61.7375 164.401 62.2317 163.298 62.916L162.5 60.2929C163.679 59.5706 165.731 58.8864 168.24 58.8864C173.335 58.8864 174.817 62.1177 174.817 65.5771V71.3175C174.817 72.7621 174.893 74.1687 175.045 75.1191H171.472V75.1571ZM170.94 67.4019C168.088 67.3259 165.389 67.9721 165.389 70.3671C165.389 71.9258 166.416 72.6481 167.67 72.6481C169.267 72.6481 170.445 71.6216 170.788 70.4431C170.902 70.139 170.902 69.8349 170.902 69.5688V67.4019H170.94Z" fill="white"/>
<path d="M179.075 51.9677H183.143V75.1573H179.075V51.9677Z" fill="white"/>
<path d="M203.177 75.1571L202.911 73.4084H202.797C201.808 74.6629 200.136 75.5373 198.083 75.5373C194.89 75.5373 193.103 73.2183 193.103 70.7853C193.103 66.7556 196.676 64.7408 202.531 64.7788V64.5127C202.531 63.4863 202.113 61.7375 199.299 61.7375C197.741 61.7375 196.106 62.2317 195.004 62.916L194.205 60.2929C195.384 59.5706 197.437 58.8864 199.946 58.8864C205.04 58.8864 206.522 62.1177 206.522 65.5771V71.3175C206.522 72.7621 206.598 74.1687 206.75 75.1191H203.177V75.1571ZM202.683 67.4019C199.832 67.3259 197.132 67.9721 197.132 70.3671C197.132 71.9258 198.159 72.6481 199.413 72.6481C201.01 72.6481 202.189 71.6216 202.531 70.4431C202.645 70.139 202.645 69.8349 202.645 69.5688V67.4019H202.683Z" fill="white"/>
<path d="M210.818 63.9805C210.818 62.1557 210.78 60.6351 210.704 59.2285H214.24L214.43 61.6235H214.544C215.228 60.369 216.977 58.8864 219.6 58.8864C222.375 58.8864 225.264 60.6731 225.264 65.7292V75.1571H221.234V66.1854C221.234 63.9044 220.398 62.1557 218.193 62.1557C216.597 62.1557 215.494 63.2962 215.076 64.5127C214.962 64.8548 214.924 65.349 214.924 65.8052V75.1571H210.856V63.9805H210.818Z" fill="white"/>
<path d="M244.158 51.9677V70.6714C244.158 72.3061 244.234 74.0548 244.272 75.1573H240.698L240.546 72.6482H240.47C239.52 74.397 237.581 75.5374 235.262 75.5374C231.461 75.5374 228.457 72.3061 228.457 67.4021C228.419 62.0798 231.765 58.9245 235.566 58.9245C237.771 58.9245 239.33 59.8369 240.052 61.0154H240.128V52.0057H244.158V51.9677ZM240.166 65.8814C240.166 65.5393 240.128 65.1591 240.052 64.855C239.71 63.2963 238.418 62.0038 236.593 62.0038C234.008 62.0038 232.563 64.2848 232.563 67.25C232.563 70.1392 234.008 72.2681 236.555 72.2681C238.189 72.2681 239.634 71.1656 240.014 69.4169C240.128 69.0747 240.128 68.6566 240.128 68.2384V65.8814H240.166Z" fill="white"/>
<path d="M255.411 53.4501C256.931 53.184 259.174 52.9939 261.493 52.9939C264.648 52.9939 266.815 53.5261 268.298 54.7426C269.515 55.769 270.199 57.2897 270.199 59.1525C270.199 62.0036 268.26 63.9044 266.207 64.6647V64.7788C267.766 65.349 268.716 66.9077 269.286 69.0366C269.971 71.7737 270.541 74.3207 271.035 75.1571H266.891C266.549 74.5108 266.055 72.7241 265.409 69.9489C264.801 67.0597 263.736 66.1474 261.455 66.1093H259.44V75.1571H255.449V53.4501H255.411ZM259.364 63.1821H261.759C264.458 63.1821 266.169 61.7375 266.169 59.5706C266.169 57.1376 264.458 56.0352 261.873 56.0352C260.619 56.0352 259.782 56.1492 259.402 56.2252V63.1821H259.364Z" fill="white"/>
<path d="M276.737 68.3524C276.851 71.2415 279.094 72.4581 281.641 72.4581C283.504 72.4581 284.835 72.1919 286.051 71.7358L286.622 74.5109C285.253 75.0811 283.352 75.4993 281.071 75.4993C275.901 75.4993 272.86 72.344 272.86 67.478C272.86 63.0682 275.521 58.9244 280.615 58.9244C285.785 58.9244 287.458 63.1822 287.458 66.6797C287.458 67.44 287.382 68.0102 287.344 68.3904H276.737V68.3524ZM283.732 65.5392C283.77 64.0566 283.124 61.6616 280.425 61.6616C277.954 61.6616 276.89 63.9045 276.737 65.5392H283.732Z" fill="white"/>
<path d="M290.765 63.9805C290.765 62.1557 290.727 60.6351 290.651 59.2285H294.111L294.263 61.5855H294.377C295.175 60.3309 296.582 58.8864 299.281 58.8864C301.372 58.8864 303.006 60.0648 303.691 61.8136H303.767C304.337 60.9392 304.983 60.2929 305.743 59.8367C306.618 59.2285 307.644 58.8864 308.937 58.8864C311.598 58.8864 314.259 60.6731 314.259 65.7672V75.1571H310.343V66.3755C310.343 63.7144 309.431 62.1557 307.492 62.1557C306.124 62.1557 305.097 63.1441 304.679 64.2846C304.565 64.6647 304.489 65.159 304.489 65.6151V75.1571H300.573V65.9573C300.573 63.7524 299.699 62.1557 297.836 62.1557C296.316 62.1557 295.327 63.3342 294.947 64.4367C294.795 64.8168 294.719 65.273 294.719 65.7292V75.1191H290.803V63.9805H290.765Z" fill="white"/>
<path d="M333.571 67.0597C333.571 72.9141 329.465 75.4992 325.398 75.4992C320.874 75.4992 317.414 72.3819 317.414 67.2878C317.414 62.0796 320.836 58.8483 325.626 58.8483C330.416 58.8863 333.571 62.2317 333.571 67.0597ZM321.596 67.2117C321.596 70.291 323.117 72.61 325.55 72.61C327.831 72.61 329.427 70.367 329.427 67.1737C329.427 64.7027 328.325 61.8515 325.588 61.8515C322.737 61.8515 321.596 64.5886 321.596 67.2117Z" fill="white"/>
<path d="M341.478 54.7046V59.2285H345.28V62.2317H341.478V69.2646C341.478 71.2034 342.011 72.1918 343.531 72.1918C344.216 72.1918 344.748 72.0778 345.09 72.0018L345.166 75.081C344.596 75.3091 343.531 75.4612 342.277 75.4612C340.794 75.4612 339.578 74.967 338.817 74.1687C337.981 73.2563 337.563 71.8117 337.563 69.7208V62.2317H335.282V59.2285H337.563V55.655L341.478 54.7046Z" fill="white"/>
<path d="M350.982 68.3524C351.096 71.2415 353.339 72.4581 355.886 72.4581C357.749 72.4581 359.08 72.1919 360.296 71.7358L360.866 74.5109C359.498 75.0811 357.597 75.4993 355.316 75.4993C350.146 75.4993 347.105 72.344 347.105 67.478C347.105 63.0682 349.766 58.9244 354.86 58.9244C360.03 58.9244 361.703 63.1822 361.703 66.6797C361.703 67.44 361.627 68.0102 361.589 68.3904H350.982V68.3524ZM357.939 65.5392C357.977 64.0566 357.331 61.6616 354.632 61.6616C352.161 61.6616 351.096 63.9045 350.944 65.5392H357.939Z" fill="white"/>
<path d="M375.921 53.1459V61.9655H385.234V53.1459H389.264V75.157H385.234V65.463H375.921V75.157H371.891V53.1459H375.921Z" fill="white"/>
<path d="M396.525 68.3524C396.639 71.2415 398.882 72.4581 401.429 72.4581C403.292 72.4581 404.623 72.1919 405.839 71.7358L406.409 74.5109C405.041 75.0811 403.14 75.4993 400.859 75.4993C395.689 75.4993 392.648 72.344 392.648 67.478C392.648 63.0682 395.309 58.9244 400.403 58.9244C405.573 58.9244 407.246 63.1822 407.246 66.6797C407.246 67.44 407.17 68.0102 407.132 68.3904H396.525V68.3524ZM403.52 65.5392C403.558 64.0566 402.912 61.6616 400.213 61.6616C397.742 61.6616 396.677 63.9045 396.525 65.5392H403.52Z" fill="white"/>
<path d="M419.487 75.1571L419.22 73.4084H419.106C418.118 74.6629 416.445 75.5373 414.392 75.5373C411.199 75.5373 409.412 73.2183 409.412 70.7853C409.412 66.7556 412.986 64.7408 418.84 64.7788V64.5127C418.84 63.4863 418.422 61.7375 415.609 61.7375C414.05 61.7375 412.416 62.2317 411.313 62.916L410.515 60.2929C411.693 59.5706 413.746 58.8864 416.255 58.8864C421.349 58.8864 422.832 62.1177 422.832 65.5771V71.3175C422.832 72.7621 422.908 74.1687 423.06 75.1191H419.487V75.1571ZM418.954 67.4019C416.103 67.3259 413.404 67.9721 413.404 70.3671C413.404 71.9258 414.43 72.6481 415.685 72.6481C417.282 72.6481 418.46 71.6216 418.802 70.4431C418.916 70.139 418.916 69.8349 418.916 69.5688V67.4019H418.954Z" fill="white"/>
<path d="M427.128 51.9677H431.196V75.1573H427.128V51.9677Z" fill="white"/>
<path d="M440.091 54.7046V59.2285H443.893V62.2317H440.091V69.2646C440.091 71.2034 440.623 72.1918 442.144 72.1918C442.828 72.1918 443.361 72.0778 443.703 72.0018L443.779 75.081C443.209 75.3091 442.144 75.4612 440.89 75.4612C439.407 75.4612 438.19 74.967 437.43 74.1687C436.594 73.2563 436.176 71.8117 436.176 69.7208V62.2317H433.895V59.2285H436.176V55.655L440.091 54.7046Z" fill="white"/>
<path d="M446.972 51.9677H451.04V61.4336H451.116C451.61 60.6733 452.256 60.065 453.093 59.6088C453.891 59.1526 454.841 58.8865 455.83 58.8865C458.529 58.8865 461.38 60.6733 461.38 65.7674V75.1573H457.35V66.2616C457.35 63.9426 456.514 62.1939 454.271 62.1939C452.712 62.1939 451.61 63.2203 451.154 64.4368C451.04 64.779 451.002 65.1971 451.002 65.6533V75.1573H446.934V51.9677H446.972Z" fill="white"/>
<path d="M488.333 74.5108C487.383 75.005 485.292 75.4992 482.669 75.4992C475.674 75.4992 471.454 71.1274 471.454 64.4367C471.454 57.1756 476.472 52.8038 483.201 52.8038C485.862 52.8038 487.725 53.3741 488.561 53.7922L487.687 56.9856C486.66 56.5294 485.216 56.1492 483.391 56.1492C478.905 56.1492 475.674 58.9624 475.674 64.2466C475.674 69.0746 478.525 72.1919 483.353 72.1919C484.988 72.1919 486.698 71.8497 487.725 71.3935L488.333 74.5108Z" fill="white"/>
<path d="M493.922 68.3524C494.036 71.2415 496.279 72.4581 498.826 72.4581C500.688 72.4581 502.019 72.1919 503.235 71.7358L503.806 74.5109C502.437 75.0811 500.536 75.4993 498.255 75.4993C493.085 75.4993 490.044 72.344 490.044 67.478C490.044 63.0682 492.705 58.9244 497.799 58.9244C502.969 58.9244 504.642 63.1822 504.642 66.6797C504.642 67.44 504.566 68.0102 504.528 68.3904H493.922V68.3524ZM500.916 65.5392C500.954 64.0566 500.308 61.6616 497.609 61.6616C495.138 61.6616 494.074 63.9045 493.922 65.5392H500.916Z" fill="white"/>
<path d="M507.911 63.9805C507.911 62.1557 507.873 60.6351 507.797 59.2285H511.333L511.523 61.6235H511.637C512.321 60.369 514.07 58.8864 516.693 58.8864C519.468 58.8864 522.357 60.6731 522.357 65.7292V75.1571H518.328V66.1854C518.328 63.9044 517.491 62.1557 515.286 62.1557C513.69 62.1557 512.587 63.2962 512.169 64.5127C512.055 64.8548 512.017 65.349 512.017 65.8052V75.1571H507.949V63.9805H507.911Z" fill="white"/>
<path d="M531.025 54.7046V59.2285H534.827V62.2317H531.025V69.2646C531.025 71.2034 531.557 72.1918 533.078 72.1918C533.762 72.1918 534.294 72.0778 534.636 72.0018L534.712 75.081C534.142 75.3091 533.078 75.4612 531.823 75.4612C530.341 75.4612 529.124 74.967 528.364 74.1687C527.528 73.2563 527.109 71.8117 527.109 69.7208V62.2317H524.828V59.2285H527.109V55.655L531.025 54.7046Z" fill="white"/>
<path d="M540.529 68.3524C540.643 71.2415 542.886 72.4581 545.433 72.4581C547.296 72.4581 548.626 72.1919 549.843 71.7358L550.413 74.5109C549.044 75.0811 547.144 75.4993 544.863 75.4993C539.693 75.4993 536.651 72.344 536.651 67.478C536.651 63.0682 539.312 58.9244 544.406 58.9244C549.577 58.9244 551.249 63.1822 551.249 66.6797C551.249 67.44 551.173 68.0102 551.135 68.3904H540.529V68.3524ZM547.524 65.5392C547.562 64.0566 546.916 61.6616 544.216 61.6616C541.745 61.6616 540.681 63.9045 540.529 65.5392H547.524Z" fill="white"/>
<path d="M554.557 64.3987C554.557 62.2318 554.519 60.7112 554.443 59.2666H557.94L558.054 62.3078H558.168C558.966 60.0649 560.829 58.9244 562.502 58.9244C562.882 58.9244 563.11 58.9625 563.452 59.0385V62.8401C563.11 62.764 562.768 62.726 562.274 62.726C560.335 62.726 559.043 63.9805 558.7 65.7673C558.624 66.1094 558.586 66.5656 558.586 67.0218V75.2332H554.557V64.3987Z" fill="white"/>
</svg>
