<svg width="563" height="112" viewBox="0 0 563 112" fill="none" xmlns="http://www.w3.org/2000/svg">
<path d="M114.504 53.4971L111.245 43.4581H112.654L114.24 48.3895C114.68 49.7545 115.032 50.9873 115.296 52.1321H115.34C115.604 50.9873 116.045 49.7104 116.485 48.3895L118.202 43.4141H119.567L115.957 53.4531H114.504V53.4971Z" fill="white"/>
<path d="M123.222 43.4585V47.6414H128.109V43.4585H129.386V53.4975H128.109V48.7862H123.222V53.4975H121.945V43.4585H123.222Z" fill="white"/>
<path d="M137.884 49.3146L136.915 46.4085C136.695 45.7481 136.563 45.1757 136.387 44.5593H136.343C136.211 45.1757 136.035 45.7481 135.815 46.3645L134.846 49.2705H137.884V49.3146ZM134.582 50.3273L133.525 53.4975H132.16L135.594 43.4585H137.179L140.614 53.4975H139.249L138.192 50.3273H134.582Z" fill="white"/>
<path d="M147.879 53.4975V43.4585H149.288L152.502 48.566C153.251 49.7549 153.823 50.8116 154.307 51.8243H154.351C154.219 50.4594 154.219 49.2705 154.219 47.6854V43.5025H155.452V53.5415H154.131L150.961 48.434C150.257 47.3332 149.596 46.1884 149.068 45.0876H149.024C149.112 46.3645 149.112 47.5533 149.112 49.2265V53.5415H147.879V53.4975Z" fill="white"/>
<path d="M163.95 49.3146L162.981 46.4085C162.761 45.7481 162.629 45.1757 162.453 44.5593H162.409C162.277 45.1757 162.101 45.7481 161.881 46.3645L160.912 49.2705H163.95V49.3146ZM160.648 50.3273L159.591 53.4975H158.226L161.661 43.4585H163.246L166.68 53.4975H165.271L164.214 50.3273H160.648Z" fill="white"/>
<path d="M170.202 44.5593H167.164V43.4585H174.606V44.5593H171.523V53.4975H170.202V44.5593Z" fill="white"/>
<path d="M178.304 43.4585H177.027V53.4975H178.304V43.4585Z" fill="white"/>
<path d="M182.707 48.522C182.707 50.6795 183.852 52.5728 185.921 52.5728C187.991 52.5728 189.136 50.6795 189.136 48.3899C189.136 46.4085 188.079 44.295 185.921 44.295C183.764 44.339 182.707 46.3204 182.707 48.522ZM190.501 48.3458C190.501 51.8243 188.387 53.6295 185.833 53.6295C183.192 53.6295 181.298 51.5601 181.298 48.522C181.298 45.3077 183.28 43.2383 185.965 43.2383C188.739 43.2823 190.501 45.3958 190.501 48.3458Z" fill="white"/>
<path d="M193.495 53.4975V43.4585H194.904L198.118 48.566C198.866 49.7549 199.439 50.8116 199.923 51.8243H199.967C199.835 50.4594 199.835 49.2705 199.835 47.6854V43.5025H201.068V53.5415H199.747L196.577 48.434C195.872 47.3332 195.212 46.1884 194.684 45.0876H194.639C194.728 46.3645 194.728 47.5533 194.728 49.2265V53.5415H193.495V53.4975Z" fill="white"/>
<path d="M209.566 49.3146L208.597 46.4085C208.377 45.7481 208.245 45.1757 208.069 44.5593H208.025C207.893 45.1757 207.717 45.7481 207.496 46.3645L206.528 49.2705H209.566V49.3146ZM206.264 50.3273L205.207 53.4975H203.842L207.276 43.4585H208.861L212.296 53.4975H210.887L209.83 50.3273H206.264Z" fill="white"/>
<path d="M215.07 43.4585H216.347V52.3967H220.662V53.4975H215.07V43.4585Z" fill="white"/>
<path d="M234.928 53.1452C234.443 53.3653 233.475 53.6295 232.286 53.6295C229.468 53.6295 227.31 51.8243 227.31 48.522C227.31 45.3958 229.424 43.2383 232.55 43.2383C233.783 43.2383 234.575 43.5025 234.928 43.6786L234.619 44.7353C234.135 44.5152 233.431 44.339 232.594 44.339C230.216 44.339 228.675 45.8361 228.675 48.4779C228.675 50.9436 230.084 52.5287 232.55 52.5287C233.342 52.5287 234.135 52.3526 234.663 52.1325L234.928 53.1452Z" fill="white"/>
<path d="M243.073 48.7862H239.154V52.3967H243.514V53.4975H237.878V43.4585H243.293V44.5152H239.154V47.7295H243.073V48.7862Z" fill="white"/>
<path d="M246.508 53.4975V43.4585H247.917L251.131 48.566C251.879 49.7549 252.452 50.8116 252.936 51.8243H252.98C252.848 50.4594 252.848 49.2705 252.848 47.6854V43.5025H254.081V53.5415H252.76L249.59 48.434C248.885 47.3332 248.225 46.1884 247.696 45.0876H247.652C247.74 46.3645 247.74 47.5533 247.74 49.2265V53.5415H246.508V53.4975Z" fill="white"/>
<path d="M259.541 44.5593H256.503V43.4585H263.944V44.5593H260.862V53.4975H259.541V44.5593Z" fill="white"/>
<path d="M271.561 48.7862H267.642V52.3967H272.001V53.4975H266.365V43.4585H271.781V44.5152H267.642V47.7295H271.561V48.7862Z" fill="white"/>
<path d="M276.316 48.1695H277.637C279.046 48.1695 279.927 47.4209 279.927 46.2761C279.927 44.9993 279.002 44.4269 277.637 44.3828C277.021 44.3828 276.581 44.4269 276.36 44.5149V48.1695H276.316ZM274.995 43.5903C275.656 43.4582 276.581 43.3701 277.505 43.3701C278.87 43.3701 279.795 43.6343 280.411 44.2067C280.896 44.647 281.204 45.3515 281.204 46.1C281.204 47.4209 280.367 48.3016 279.31 48.6538V48.6978C280.103 48.962 280.543 49.6665 280.808 50.7232C281.116 52.1322 281.38 53.1009 281.556 53.4972H280.235C280.059 53.233 279.839 52.3524 279.575 51.0755C279.266 49.7105 278.738 49.1822 277.549 49.1381H276.316V53.4972H275.04V43.5903H274.995Z" fill="white"/>
<path d="M284.154 51.9122C284.726 52.2645 285.607 52.5727 286.487 52.5727C287.808 52.5727 288.601 51.8682 288.601 50.8555C288.601 49.9309 288.073 49.3585 286.708 48.8741C285.078 48.3017 284.066 47.4211 284.066 46.0121C284.066 44.427 285.343 43.2822 287.324 43.2822C288.337 43.2822 289.085 43.5024 289.526 43.7666L289.173 44.8233C288.821 44.6472 288.161 44.339 287.28 44.339C285.915 44.339 285.387 45.1755 285.387 45.836C285.387 46.7606 286.003 47.245 287.368 47.7734C289.085 48.4338 289.922 49.2704 289.922 50.7234C289.922 52.2645 288.777 53.6294 286.399 53.6294C285.431 53.6294 284.374 53.3652 283.846 52.969L284.154 51.9122Z" fill="white"/>
<path d="M297.495 43.4585H302.911V44.5152H298.772V47.8616H302.603V48.9623H298.772V53.4975H297.495V43.4585Z" fill="white"/>
<path d="M306.874 48.522C306.874 50.6795 308.018 52.5728 310.088 52.5728C312.157 52.5728 313.302 50.6795 313.302 48.3899C313.302 46.4085 312.245 44.295 310.088 44.295C307.93 44.339 306.874 46.3204 306.874 48.522ZM314.667 48.3458C314.667 51.8243 312.554 53.6295 310 53.6295C307.358 53.6295 305.465 51.5601 305.465 48.522C305.465 45.3077 307.446 43.2383 310.132 43.2383C312.862 43.2823 314.667 45.3958 314.667 48.3458Z" fill="white"/>
<path d="M318.938 48.1695H320.259C321.668 48.1695 322.549 47.4209 322.549 46.2761C322.549 44.9993 321.624 44.4269 320.259 44.3828C319.643 44.3828 319.202 44.4269 318.982 44.5149V48.1695H318.938ZM317.661 43.5903C318.322 43.4582 319.246 43.3701 320.171 43.3701C321.536 43.3701 322.46 43.6343 323.077 44.2067C323.561 44.647 323.869 45.3515 323.869 46.1C323.869 47.4209 323.033 48.3016 321.976 48.6538V48.6978C322.769 48.962 323.209 49.6665 323.473 50.7232C323.781 52.1322 324.046 53.1009 324.222 53.4972H322.901C322.725 53.233 322.505 52.3524 322.24 51.0755C321.932 49.7105 321.404 49.1822 320.215 49.1381H318.938V53.4972H317.661V43.5903Z" fill="white"/>
<path d="M332.764 43.4585H331.487V53.4975H332.764V43.4585Z" fill="white"/>
<path d="M336.33 53.4975V43.4585H337.739L340.953 48.566C341.702 49.7549 342.274 50.8116 342.759 51.8243H342.803C342.671 50.4594 342.671 49.2705 342.671 47.6854V43.5025H343.903V53.5415H342.582L339.412 48.434C338.708 47.3332 338.047 46.1884 337.519 45.0876H337.475C337.563 46.3645 337.563 47.5533 337.563 49.2265V53.5415H336.33V53.4975Z" fill="white"/>
<path d="M347.47 53.4975V43.4585H348.879L352.093 48.566C352.842 49.7549 353.414 50.8116 353.898 51.8243H353.942C353.81 50.4594 353.81 49.2705 353.81 47.6854V43.5025H355.043V53.5415H353.722L350.552 48.434C349.848 47.3332 349.187 46.1884 348.659 45.0876H348.615C348.703 46.3645 348.703 47.5533 348.703 49.2265V53.5415H347.47V53.4975Z" fill="white"/>
<path d="M359.402 48.522C359.402 50.6795 360.591 52.5728 362.616 52.5728C364.686 52.5728 365.831 50.6795 365.831 48.3899C365.831 46.4085 364.774 44.295 362.616 44.295C360.459 44.339 359.402 46.3204 359.402 48.522ZM367.196 48.3458C367.196 51.8243 365.082 53.6295 362.528 53.6295C359.887 53.6295 357.993 51.5601 357.993 48.522C357.993 45.3077 359.975 43.2383 362.66 43.2383C365.434 43.2823 367.196 45.3958 367.196 48.3458Z" fill="white"/>
<path d="M372.391 53.4971L369.133 43.4581H370.542L372.127 48.3895C372.567 49.7545 372.92 50.9873 373.184 52.1321H373.228C373.492 50.9873 373.932 49.7104 374.373 48.3895L376.09 43.4141H377.455L373.844 53.4531H372.391V53.4971Z" fill="white"/>
<path d="M383.883 49.3146L382.915 46.4085C382.694 45.7481 382.562 45.1757 382.386 44.5593H382.342C382.21 45.1757 382.034 45.7481 381.814 46.3645L380.845 49.2705H383.883V49.3146ZM380.581 50.3273L379.524 53.4975H378.159L381.594 43.4585H383.179L386.613 53.4975H385.248L384.192 50.3273H380.581Z" fill="white"/>
<path d="M390.18 44.5593H387.142V43.4585H394.539V44.5593H391.501V53.4975H390.18V44.5593Z" fill="white"/>
<path d="M398.281 43.4585H397.004V53.4975H398.281V43.4585Z" fill="white"/>
<path d="M402.64 48.522C402.64 50.6795 403.785 52.5728 405.855 52.5728C407.924 52.5728 409.069 50.6795 409.069 48.3899C409.069 46.4085 408.012 44.295 405.855 44.295C403.741 44.339 402.64 46.3204 402.64 48.522ZM410.478 48.3458C410.478 51.8243 408.364 53.6295 405.811 53.6295C403.169 53.6295 401.275 51.5601 401.275 48.522C401.275 45.3077 403.257 43.2383 405.943 43.2383C408.673 43.2823 410.478 45.3958 410.478 48.3458Z" fill="white"/>
<path d="M413.472 53.4975V43.4585H414.881L418.095 48.566C418.844 49.7549 419.416 50.8116 419.9 51.8243H419.944C419.812 50.4594 419.812 49.2705 419.812 47.6854V43.5025H421.045V53.5415H419.724L416.554 48.434C415.85 47.3332 415.189 46.1884 414.661 45.0876H414.617C414.705 46.3645 414.705 47.5533 414.705 49.2265V53.5415H413.472V53.4975Z" fill="white"/>
<path d="M430.38 44.5593H427.297V43.4585H434.739V44.5593H431.657V53.4975H430.38V44.5593Z" fill="white"/>
<path d="M437.557 48.522C437.557 50.6795 438.745 52.5728 440.771 52.5728C442.84 52.5728 443.985 50.6795 443.985 48.3899C443.985 46.4085 442.928 44.295 440.771 44.295C438.657 44.339 437.557 46.3204 437.557 48.522ZM445.35 48.3458C445.35 51.8243 443.237 53.6295 440.683 53.6295C438.041 53.6295 436.148 51.5601 436.148 48.522C436.148 45.3077 438.129 43.2383 440.815 43.2383C443.589 43.2823 445.35 45.3958 445.35 48.3458Z" fill="white"/>
<path d="M454.112 43.4585H452.835V53.4975H454.112V43.4585Z" fill="white"/>
<path d="M466.177 49.0944C466.089 47.6854 466 46.0123 466.044 44.7354H466C465.648 45.9242 465.252 47.1571 464.724 48.566L462.962 53.4535H461.994L460.364 48.6541C459.88 47.2451 459.484 45.9242 459.22 44.7354H459.176C459.132 45.9682 459.088 47.6854 459 49.1825L458.735 53.4975H457.503L458.207 43.4585H459.88L461.597 48.3019C461.994 49.5347 462.346 50.6355 462.61 51.6922H462.654C462.918 50.6795 463.271 49.5788 463.711 48.3019L465.516 43.4585H467.189L467.806 53.4975H466.529L466.177 49.0944Z" fill="white"/>
<path d="M472.341 48.3896C472.605 48.4777 473.001 48.4777 473.398 48.4777C474.983 48.4777 475.907 47.7292 475.907 46.3202C475.907 44.9993 474.983 44.3388 473.53 44.3388C472.957 44.3388 472.517 44.3828 472.297 44.4269V48.3896H472.341ZM471.02 43.5462C471.636 43.4582 472.473 43.3701 473.53 43.3701C474.807 43.3701 475.731 43.6783 476.348 44.2067C476.92 44.691 477.228 45.3955 477.228 46.3202C477.228 47.2448 476.964 47.9493 476.436 48.4777C475.731 49.2262 474.63 49.5784 473.354 49.5784C472.957 49.5784 472.605 49.5784 472.297 49.4904V53.5412H471.02V43.5462Z" fill="white"/>
<path d="M483.921 49.3146L482.952 46.4085C482.732 45.7481 482.6 45.1757 482.424 44.5593H482.38C482.248 45.1757 482.072 45.7481 481.852 46.3645L480.883 49.2705H483.921V49.3146ZM480.663 50.3273L479.606 53.4975H478.285L481.719 43.4585H483.305L486.739 53.4975H485.33L484.273 50.3273H480.663Z" fill="white"/>
<path d="M496.249 53.1452C495.765 53.3653 494.796 53.6295 493.608 53.6295C490.79 53.6295 488.632 51.8243 488.632 48.522C488.632 45.3958 490.746 43.2383 493.872 43.2383C495.105 43.2383 495.897 43.5025 496.249 43.6786L495.941 44.7353C495.457 44.5152 494.752 44.339 493.916 44.339C491.538 44.339 489.997 45.8361 489.997 48.4779C489.997 50.9436 491.406 52.5287 493.872 52.5287C494.664 52.5287 495.457 52.3526 495.985 52.1325L496.249 53.1452Z" fill="white"/>
<path d="M501.533 44.5593H498.451V43.4585H505.892V44.5593H502.854V53.4975H501.533V44.5593Z" fill="white"/>
<mask id="mask0_16_250" style="mask-type:luminance" maskUnits="userSpaceOnUse" x="0" y="0" width="110" height="90">
<path d="M58.7169 31.7901C56.9997 32.4506 54.622 34.9163 52.2884 38.3947C49.9548 41.8732 47.9734 46.012 46.5644 50.1949C55.5467 44.0307 60.8303 36.8537 60.7423 33.3752C60.7423 32.6267 60.4781 32.0983 59.9497 31.7461C59.8617 31.7021 59.7296 31.658 59.6415 31.614C59.5975 31.614 59.5094 31.614 59.4654 31.614C59.2012 31.658 58.981 31.7021 58.7169 31.7901ZM88.2174 23.9086L94.6459 24.0848L107.239 8.80613L100.986 25.5378L109.925 30.4692L109.528 3.8747L88.2174 23.9086ZM32.1664 21.3549C31.1977 21.2228 30.3611 20.8265 29.7007 20.166C28.776 19.2414 28.2917 17.9645 28.3797 16.5555C28.4678 15.1906 29.0842 13.8256 30.0969 12.7249C32.2985 10.4353 35.997 9.9069 37.8904 11.6241C38.9031 12.5487 39.4314 13.6055 39.4755 14.8383C39.5195 16.3794 38.771 18.0085 37.318 19.5056C36.3053 20.5623 34.8963 21.2668 33.4433 21.3549C33.2672 21.3549 33.091 21.3549 32.9589 21.3549C32.7388 21.4429 32.4746 21.3989 32.1664 21.3549ZM32.6067 0C27.8073 0 23.2282 0.924644 19.0893 3.03812C-6.88881 16.2473 -4.33503 73.7073 14.6422 86.2561C17.4161 88.1053 20.9826 89.1621 25.0334 89.5143H32.4746C56.2071 87.577 88.9219 68.7319 88.9219 48.4778C88.9219 46.8927 88.7458 45.2635 88.4376 43.5903C87.7331 44.8672 86.8965 46.1441 86.0599 47.465C81.877 53.8935 75.0522 62.6556 66.07 67.9833C59.0691 72.1222 52.1123 73.0469 46.7846 72.2543C42.8218 71.6379 39.6956 70.0528 38.1546 68.0714C37.0538 66.7065 36.2172 65.0333 35.6888 63.0959C28.8641 66.3102 22.7878 67.7192 18.0325 67.1908C15.1705 66.8826 12.7489 64.9452 11.3399 61.9071C7.90549 54.4659 10.8115 42.5776 19.1333 30.161C21.8192 26.1542 25.3416 26.0221 26.7506 26.1542C28.6439 26.3303 30.3611 27.299 30.8895 28.4878C31.5059 29.9408 30.0089 32.3625 27.7193 36.0171C25.3416 39.8477 22.3475 44.6031 20.5863 50.1509C19.0893 54.8622 18.9132 58.4727 20.146 60.1018C20.7184 60.8504 21.555 61.1586 22.7879 61.1145C25.7819 60.9825 29.8768 59.6175 34.9843 57.0197C35.2926 43.5463 46.1241 26.2863 58.5848 25.0975C60.9624 24.8773 63.3841 25.7579 65.0133 27.5192C66.5984 29.2364 67.2588 31.4819 66.8625 33.9036C65.8058 40.4201 56.6915 50.3711 44.6711 58.0764C44.4509 61.4668 45.3756 64.0206 47.2689 65.4736C49.4264 67.1468 52.7287 67.2788 56.6034 65.8699C71.0014 60.5862 81.1285 46.8046 86.9405 38.3507C79.8516 19.1533 54.1817 0 32.6067 0Z" fill="white"/>
</mask>
<g mask="url(#mask0_16_250)">
<path d="M154.307 50.371L44.1867 147.459L-51.2717 39.1872L58.8489 -57.9004L154.307 50.371Z" fill="white"/>
</g>
<path d="M111.95 105.541C111.113 105.541 110.453 104.881 110.453 104.044C110.453 103.208 111.113 102.547 111.95 102.547C112.787 102.547 113.447 103.208 113.447 104.044C113.447 104.881 112.787 105.541 111.95 105.541ZM111.95 100.258C109.836 100.258 108.119 101.975 108.119 104.088C108.119 107.479 111.95 110.737 111.95 110.737C111.95 110.737 115.781 107.259 115.781 104.088C115.781 101.975 114.063 100.258 111.95 100.258Z" fill="white"/>
<path d="M113.271 61.8633V87.5772H108.604V61.8633H113.271Z" fill="white"/>
<path d="M118.643 62.2154C120.712 61.8631 123.31 61.687 126.128 61.687C130.927 61.687 134.229 62.6997 136.607 64.6811C139.073 66.7065 140.614 69.7446 140.614 74.1477C140.614 78.7269 139.073 82.1613 136.607 84.3628C134.053 86.6964 129.958 87.8853 124.983 87.8853C122.253 87.8853 120.184 87.7532 118.643 87.533V62.2154ZM123.31 83.9665C123.97 84.0986 124.939 84.0986 125.908 84.0986C132.028 84.1426 135.638 80.7963 135.638 74.2798C135.682 68.5998 132.38 65.3416 126.524 65.3416C125.027 65.3416 123.97 65.4736 123.31 65.6057V83.9665Z" fill="white"/>
<path d="M159.019 76.1728H149.332V83.7021H160.164V87.5328H144.665V61.8188H159.591V65.6495H149.332V72.2981H159.019V76.1728Z" fill="white"/>
<path d="M169.454 80.2677L167.252 87.5328H162.409L170.643 61.8188H176.631L184.997 87.5328H179.977L177.644 80.2677H169.454ZM176.807 76.7452L174.782 70.4048C174.297 68.8638 173.857 67.1025 173.505 65.6055H173.417C173.02 67.1025 172.668 68.8638 172.184 70.4048L170.202 76.7452H176.807Z" fill="white"/>
<path d="M188.431 82.4695C189.972 83.3501 192.262 84.0986 194.639 84.0986C197.634 84.0986 199.307 82.6897 199.307 80.5762C199.307 78.6388 198.03 77.494 194.728 76.3052C190.501 74.7641 187.771 72.5186 187.771 68.82C187.771 64.6371 191.293 61.4229 196.841 61.4229C199.615 61.4229 201.684 62.0393 203.005 62.6997L201.86 66.4864C200.936 66.002 199.175 65.2535 196.753 65.2535C193.759 65.2535 192.482 66.8386 192.482 68.3357C192.482 70.317 193.979 71.2417 197.413 72.5626C201.86 74.2358 204.062 76.4813 204.062 80.1799C204.062 84.3188 200.936 87.8853 194.287 87.8853C191.601 87.8853 188.739 87.1368 187.33 86.3002L188.431 82.4695Z" fill="white"/>
<path d="M234.619 86.7845C233.519 87.3569 231.053 87.9293 227.971 87.9293C219.825 87.9293 214.85 82.8218 214.85 74.9843C214.85 66.5304 220.706 61.4229 228.587 61.4229C231.669 61.4229 233.871 62.0833 234.839 62.5677L233.827 66.3103C232.594 65.7819 230.921 65.2976 228.807 65.2976C223.568 65.2976 219.825 68.5558 219.825 74.7641C219.825 80.4001 223.127 84.0106 228.763 84.0106C230.657 84.0106 232.638 83.6143 233.871 83.0419L234.619 86.7845Z" fill="white"/>
<path d="M241.136 79.6073C241.268 82.9536 243.866 84.4066 246.86 84.4066C249.017 84.4066 250.602 84.0984 252.011 83.57L252.716 86.8283C251.131 87.4888 248.885 87.9731 246.243 87.9731C240.211 87.9731 236.689 84.2745 236.689 78.5946C236.689 73.443 239.815 68.5996 245.759 68.5996C251.791 68.5996 253.773 73.5751 253.773 77.6259C253.773 78.5065 253.685 79.167 253.641 79.6073H241.136ZM249.326 76.305C249.37 74.5878 248.621 71.7698 245.495 71.7698C242.589 71.7698 241.356 74.4117 241.18 76.305H249.326Z" fill="white"/>
<path d="M257.515 74.5438C257.515 72.4304 257.471 70.6251 257.383 68.996H261.522L261.742 71.7699H261.874C262.667 70.3169 264.692 68.5557 267.774 68.5557C271.033 68.5557 274.379 70.6691 274.379 76.5252V87.5329H269.624V77.0536C269.624 74.3677 268.611 72.3863 266.057 72.3863C264.208 72.3863 262.887 73.7072 262.403 75.1162C262.271 75.5565 262.227 76.1289 262.227 76.6573V87.5769H257.515V74.5438Z" fill="white"/>
<path d="M284.506 63.7124V68.9961H288.953V72.5185H284.506V80.7082C284.506 82.9538 285.122 84.1426 286.928 84.1426C287.72 84.1426 288.337 84.0105 288.777 83.9225L288.865 87.489C288.161 87.7531 286.972 87.9293 285.475 87.9293C283.758 87.9293 282.305 87.3569 281.424 86.3882C280.411 85.3315 279.971 83.6583 279.971 81.1926V72.4745H277.285V68.952H279.971V64.7691L284.506 63.7124Z" fill="white"/>
<path d="M295.602 79.6073C295.734 82.9536 298.332 84.4066 301.326 84.4066C303.483 84.4066 305.068 84.0984 306.477 83.57L307.182 86.8283C305.597 87.4888 303.351 87.9731 300.709 87.9731C294.677 87.9731 291.155 84.2745 291.155 78.5946C291.155 73.443 294.281 68.5996 300.225 68.5996C306.257 68.5996 308.239 73.5751 308.239 77.6259C308.239 78.5065 308.151 79.167 308.107 79.6073H295.602ZM303.747 76.305C303.792 74.5878 303.043 71.7698 299.917 71.7698C297.011 71.7698 295.778 74.4117 295.602 76.305H303.747Z" fill="white"/>
<path d="M311.937 74.9841C311.937 72.4743 311.893 70.6691 311.805 68.9959H315.9L316.032 72.5624H316.164C317.089 69.9205 319.246 68.5996 321.228 68.5996C321.668 68.5996 321.932 68.6436 322.328 68.7317V73.1348C321.932 73.0467 321.536 73.0027 320.963 73.0027C318.718 73.0027 317.177 74.4557 316.781 76.5692C316.692 77.0095 316.648 77.4938 316.648 78.0222V87.6209H311.981V74.9841H311.937Z" fill="white"/>
<path d="M333.952 87.5768V72.5183H331.443V68.9958H333.952V68.2033C333.952 65.7816 334.613 63.4039 336.198 61.8629C337.563 60.586 339.456 60.0576 341.041 60.0576C342.318 60.0576 343.287 60.2337 344.036 60.4979L343.683 64.1084C343.199 63.9323 342.538 63.7562 341.702 63.7562C339.368 63.7562 338.576 65.6935 338.576 67.9831V68.9518H342.671V72.4743H338.62V87.5328H333.952V87.5768Z" fill="white"/>
<path d="M362.793 78.1102C362.793 84.935 357.993 87.9731 353.282 87.9731C348.042 87.9731 343.992 84.3626 343.992 78.4184C343.992 72.2982 347.998 68.5996 353.59 68.5996C359.094 68.5996 362.793 72.4743 362.793 78.1102ZM348.791 78.2864C348.791 81.8528 350.552 84.5827 353.414 84.5827C356.1 84.5827 357.949 81.9409 357.949 78.1983C357.949 75.2923 356.672 71.99 353.458 71.99C350.156 71.99 348.791 75.2042 348.791 78.2864Z" fill="white"/>
<path d="M366.667 74.9841C366.667 72.4743 366.623 70.6691 366.535 68.9959H370.63L370.762 72.5624H370.894C371.819 69.9205 373.976 68.5996 375.958 68.5996C376.398 68.5996 376.662 68.6436 377.058 68.7317V73.1348C376.662 73.0467 376.266 73.0027 375.694 73.0027C373.448 73.0027 371.907 74.4557 371.511 76.5692C371.423 77.0095 371.379 77.4938 371.379 78.0222V87.6209H366.711V74.9841H366.667Z" fill="white"/>
<path d="M392.998 61.8633V87.5772H388.33V61.8633H392.998Z" fill="white"/>
<path d="M398.413 74.5438C398.413 72.4304 398.369 70.6251 398.281 68.996H402.42L402.64 71.7699H402.772C403.565 70.3169 405.59 68.5557 408.672 68.5557C411.931 68.5557 415.277 70.6691 415.277 76.5252V87.5329H410.522V77.0536C410.522 74.3677 409.509 72.3863 406.955 72.3863C405.106 72.3863 403.785 73.7072 403.301 75.1162C403.169 75.5565 403.125 76.1289 403.125 76.6573V87.5769H398.413V74.5438Z" fill="white"/>
<path d="M420.209 74.5438C420.209 72.4304 420.165 70.6251 420.076 68.996H424.215L424.435 71.7699H424.568C425.36 70.3169 427.386 68.5557 430.468 68.5557C433.726 68.5557 437.072 70.6691 437.072 76.5252V87.5329H432.405V77.0536C432.405 74.3677 431.392 72.3863 428.839 72.3863C426.989 72.3863 425.668 73.7072 425.184 75.1162C425.052 75.5565 425.008 76.1289 425.008 76.6573V87.5769H420.209V74.5438Z" fill="white"/>
<path d="M459.66 78.1102C459.66 84.935 454.861 87.9731 450.149 87.9731C444.91 87.9731 440.859 84.3626 440.859 78.4184C440.859 72.2982 444.866 68.5996 450.458 68.5996C455.961 68.5996 459.66 72.4743 459.66 78.1102ZM445.658 78.2864C445.658 81.8528 447.42 84.5827 450.282 84.5827C452.967 84.5827 454.817 81.9409 454.817 78.1983C454.817 75.2923 453.54 71.99 450.326 71.99C447.023 71.99 445.658 75.2042 445.658 78.2864Z" fill="white"/>
<path d="M466.177 68.9961L469.171 78.4187C469.699 80.0478 470.095 81.5448 470.448 83.0859H470.58C470.932 81.5448 471.328 80.0918 471.857 78.4187L474.807 68.9961H479.782L472.693 87.577H468.07L461.157 68.9961H466.177Z" fill="white"/>
<path d="M492.815 87.5769L492.507 85.5075H492.375C491.23 86.9605 489.293 87.9732 486.871 87.9732C483.128 87.9732 481.059 85.2873 481.059 82.4253C481.059 77.7581 485.198 75.3804 492.067 75.4244V75.1162C492.067 73.8834 491.582 71.858 488.28 71.858C486.431 71.858 484.537 72.4304 483.305 73.2229L482.38 70.1848C483.745 69.3482 486.166 68.5557 489.073 68.5557C495.017 68.5557 496.734 72.3423 496.734 76.3491V83.0417C496.734 84.7149 496.822 86.344 496.998 87.4888H492.815V87.5769ZM492.199 78.5066C488.896 78.4185 485.726 79.1671 485.726 81.985C485.726 83.8343 486.915 84.6709 488.412 84.6709C490.261 84.6709 491.67 83.438 492.067 82.1171C492.199 81.7649 492.199 81.4126 492.199 81.1044V78.5066Z" fill="white"/>
<path d="M506.861 63.7124V68.9961H511.308V72.5185H506.861V80.7082C506.861 82.9538 507.477 84.1426 509.283 84.1426C510.075 84.1426 510.692 84.0105 511.132 83.9225L511.22 87.489C510.515 87.7531 509.327 87.9293 507.83 87.9293C506.112 87.9293 504.659 87.3569 503.779 86.3882C502.766 85.3315 502.326 83.6583 502.326 81.1926V72.4745H499.64V68.952H502.326V64.7691L506.861 63.7124Z" fill="white"/>
<path d="M519.85 63.8004C519.85 65.2093 518.837 66.3101 517.164 66.3101C515.623 66.3101 514.566 65.2093 514.566 63.8004C514.566 62.3473 515.623 61.2466 517.208 61.2466C518.837 61.2466 519.85 62.3473 519.85 63.8004ZM514.874 87.5769V68.996H519.586V87.5769H514.874Z" fill="white"/>
<path d="M542.306 78.1102C542.306 84.935 537.506 87.9731 532.795 87.9731C527.555 87.9731 523.504 84.3626 523.504 78.4184C523.504 72.2982 527.511 68.5996 533.103 68.5996C538.607 68.5996 542.306 72.4743 542.306 78.1102ZM528.304 78.2864C528.304 81.8528 530.065 84.5827 532.927 84.5827C535.613 84.5827 537.462 81.9409 537.462 78.1983C537.462 75.2923 536.185 71.99 532.971 71.99C529.625 71.99 528.304 75.2042 528.304 78.2864Z" fill="white"/>
<path d="M546.136 74.5438C546.136 72.4304 546.092 70.6251 546.004 68.996H550.143L550.363 71.7699H550.495C551.288 70.3169 553.313 68.5557 556.395 68.5557C559.654 68.5557 563 70.6691 563 76.5252V87.5329H558.333V77.0536C558.333 74.3677 557.32 72.3863 554.766 72.3863C552.917 72.3863 551.596 73.7072 551.112 75.1162C550.98 75.5565 550.936 76.1289 550.936 76.6573V87.5769H546.136V74.5438Z" fill="white"/>
<path d="M121.681 101.535C122.253 101.402 123.09 101.358 123.882 101.358C125.115 101.358 125.908 101.579 126.48 102.063C126.92 102.459 127.185 103.076 127.185 103.736C127.185 104.925 126.436 105.673 125.511 106.026V106.07C126.216 106.29 126.612 106.95 126.832 107.875C127.141 109.108 127.317 109.988 127.537 110.297H126.348C126.216 110.032 125.996 109.284 125.732 108.183C125.467 106.95 124.983 106.51 123.97 106.466H122.87V110.341H121.681V101.535ZM122.826 105.585H124.014C125.247 105.585 126.04 104.925 126.04 103.912C126.04 102.767 125.203 102.283 124.014 102.239C123.442 102.239 123.046 102.283 122.87 102.327V105.585H122.826Z" fill="white"/>
<path d="M129.958 101.402V110.297H128.814V101.402H129.958Z" fill="white"/>
<path d="M138.192 110.033C137.752 110.253 136.915 110.473 135.859 110.473C133.349 110.473 131.456 108.888 131.456 105.982C131.456 103.208 133.349 101.314 136.123 101.314C137.224 101.314 137.928 101.535 138.236 101.711L137.972 102.635C137.532 102.415 136.915 102.283 136.167 102.283C134.097 102.283 132.688 103.604 132.688 105.938C132.688 108.095 133.965 109.504 136.123 109.504C136.827 109.504 137.532 109.372 138.016 109.152L138.192 110.033Z" fill="white"/>
<path d="M140.746 101.402V105.145H145.061V101.402H146.206V110.297H145.061V106.114H140.746V110.297H139.601V101.402H140.746Z" fill="white"/>
<path d="M155.716 106.378C155.672 105.145 155.584 103.648 155.584 102.547H155.54C155.232 103.604 154.88 104.705 154.439 105.937L152.854 110.252H151.974L150.521 106.026C150.08 104.749 149.728 103.604 149.508 102.547H149.464C149.42 103.648 149.376 105.145 149.288 106.466L149.068 110.297H147.967L148.583 101.402H150.036L151.533 105.717C151.886 106.818 152.194 107.787 152.414 108.711H152.458C152.678 107.831 152.986 106.818 153.383 105.717L154.968 101.402H156.421L156.993 110.297H155.892L155.716 106.378Z" fill="white"/>
<path d="M166.46 105.762C166.46 108.844 164.611 110.429 162.321 110.429C159.987 110.429 158.314 108.624 158.314 105.894C158.314 103.076 160.075 101.227 162.453 101.227C164.875 101.271 166.46 103.12 166.46 105.762ZM159.547 105.894C159.547 107.787 160.56 109.504 162.365 109.504C164.17 109.504 165.227 107.831 165.227 105.806C165.227 104.045 164.302 102.195 162.409 102.195C160.516 102.195 159.547 103.956 159.547 105.894Z" fill="white"/>
<path d="M167.957 110.297V101.402H169.234L172.096 105.893C172.756 106.95 173.285 107.875 173.681 108.799H173.725C173.637 107.611 173.593 106.51 173.593 105.145V101.402H174.694V110.297H173.549L170.731 105.761C170.114 104.793 169.498 103.736 169.058 102.811H169.014C169.058 103.956 169.102 105.013 169.102 106.466V110.252H167.957V110.297Z" fill="white"/>
<path d="M176.631 101.535C177.335 101.446 178.172 101.358 179.053 101.358C180.726 101.358 181.871 101.755 182.663 102.459C183.456 103.164 183.896 104.22 183.896 105.673C183.896 107.126 183.456 108.315 182.619 109.152C181.783 109.988 180.418 110.429 178.7 110.429C177.864 110.429 177.203 110.385 176.631 110.341V101.535ZM177.776 109.416C178.084 109.46 178.48 109.46 178.921 109.46C181.386 109.46 182.707 108.095 182.707 105.673C182.707 103.56 181.518 102.239 179.097 102.239C178.48 102.239 178.04 102.283 177.732 102.371V109.416H177.776Z" fill="white"/>
<path d="M183.72 111.926C184.028 111.133 184.38 109.724 184.512 108.756L185.789 108.624C185.481 109.724 184.909 111.221 184.556 111.838L183.72 111.926Z" fill="white"/>
<path d="M191.513 110.297L188.607 101.403H189.84L191.205 105.806C191.601 106.995 191.91 108.095 192.174 109.152H192.218C192.482 108.14 192.834 106.995 193.231 105.85L194.728 101.447H195.96L192.79 110.341H191.513V110.297Z" fill="white"/>
<path d="M197.634 107.523L196.709 110.341H195.52L198.558 101.447H199.923L202.961 110.341H201.728L200.76 107.523H197.634ZM200.54 106.598L199.659 104.045C199.439 103.472 199.307 102.944 199.175 102.415C199.043 102.944 198.91 103.472 198.734 104.045L197.854 106.598H200.54Z" fill="white"/>
</svg>
