<svg width="545" height="96" viewBox="0 0 545 96" fill="none" xmlns="http://www.w3.org/2000/svg">
<path d="M55.9825 30.6217C54.3533 31.2424 52.0259 33.5698 49.8536 36.9058C47.6813 40.2418 45.7418 44.1985 44.4229 48.1551C52.9568 42.2589 57.9996 35.4318 57.922 32.0958C57.922 31.3976 57.6893 30.8545 57.1462 30.5442C57.0686 30.4666 56.9135 30.4666 56.8359 30.4666C56.7583 30.4666 56.7583 30.4666 56.6807 30.4666C56.448 30.4666 56.2152 30.5442 55.9825 30.6217ZM84.1445 23.0964L90.2734 23.2515L102.299 8.66625L96.3248 24.648L104.859 29.3029L104.471 3.93378L84.1445 23.0964ZM30.691 20.6913C29.76 20.5362 28.9842 20.1483 28.3636 19.6052C27.4326 18.7518 27.0447 17.5105 27.1223 16.1916C27.1998 14.8727 27.8205 13.5539 28.7515 12.5453C30.8462 10.373 34.3373 9.82997 36.1993 11.4592C37.1303 12.3126 37.6733 13.3987 37.6733 14.4848C37.7509 15.9589 36.9751 17.5105 35.6562 18.9846C34.6476 19.9931 33.4063 20.6138 31.9323 20.7689C31.7771 20.7689 31.622 20.7689 31.4668 20.7689C31.1565 20.7689 30.9237 20.7689 30.691 20.6913ZM28.7515 0.442627C25.0276 0.675371 21.4588 1.60635 18.2004 3.23556C-6.54802 15.8037 -4.14299 70.6537 13.9334 82.6012C32.0099 94.5487 84.7652 71.6622 84.7652 46.6035C84.7652 45.0519 84.61 43.5002 84.2997 41.9486C83.6014 43.1123 82.8256 44.4312 82.0498 45.6725C78.0932 51.8014 71.5763 60.1802 63.0424 65.223C56.3704 69.1796 49.776 70.033 44.6556 69.2572C40.8541 68.6366 37.9061 67.1625 36.432 65.3006C35.3459 63.9817 34.5701 62.3525 34.1046 60.5681C27.5878 63.5938 21.7692 64.9903 17.2694 64.4472C14.5541 64.1369 12.2267 62.3525 10.9078 59.4044C7.64936 52.3445 10.4423 41.0176 18.3556 29.1477C20.9158 25.3462 24.2518 25.1911 25.6482 25.3462C27.5102 25.5014 29.1394 26.4324 29.6049 27.5961C30.2255 28.9925 28.7515 31.2424 26.5792 34.7336C24.3293 38.3799 21.4588 42.9572 19.752 48.2327C18.278 52.7324 18.2004 56.146 19.3641 57.6976C19.9072 58.3959 20.683 58.7062 21.8467 58.7062C24.7172 58.6286 28.5963 57.3097 33.4839 54.8271C33.7943 41.9486 44.1126 25.5014 55.9825 24.4152C58.2324 24.1825 60.5598 25.0359 62.1114 26.7427C63.5855 28.3719 64.2837 30.5442 63.8958 32.8716C62.8872 39.0781 54.1981 48.543 42.7161 55.9132C42.4834 59.1717 43.3368 61.5767 45.1987 62.9731C47.2934 64.5248 50.3967 64.6799 54.1206 63.3611C67.8524 58.3183 77.4725 45.1295 83.0584 37.1386C76.5415 19.45 53.5775 1.83909 33.5615 0.520213H28.7515V0.442627Z" fill="white"/>
<path d="M89.808 91.0575L84.7652 75.5413H87.8684L89.9632 82.6012C90.5838 84.5407 91.0493 86.4026 91.5148 88.2646H91.5924C91.9803 86.4026 92.5233 84.5407 93.144 82.6787L95.3938 75.6188H98.4195L93.0664 91.1351H89.808V91.0575Z" fill="white"/>
<path d="M102.919 75.5413V81.7478H109.436V75.5413H112.307V91.0575H109.436V84.2304H102.919V91.0575H100.126V75.5413H102.919Z" fill="white"/>
<path d="M123.09 84.4631L121.849 80.6616C121.539 79.7307 121.306 78.6445 121.073 77.7911H120.996C120.763 78.7221 120.53 79.7307 120.297 80.6616L119.134 84.4631H123.09ZM118.668 86.6354L117.349 91.0575H114.401L119.366 75.5413H122.935L127.978 91.0575H124.952L123.556 86.6354H118.668Z" fill="white"/>
<path d="M134.883 91.0575V75.5413H138.064L142.098 82.2133C143.106 83.92 144.037 85.7044 144.736 87.4112H144.813C144.658 85.3165 144.58 83.377 144.58 80.972V75.5413H147.218V91.0575H144.27L140.236 84.2304C139.227 82.5236 138.219 80.6616 137.443 78.8773H137.365C137.443 80.8944 137.52 82.9115 137.52 85.4717V90.9799H134.883V91.0575Z" fill="white"/>
<path d="M156.295 85.5492C154.278 85.4716 152.416 85.9371 152.416 87.6439C152.416 88.73 153.114 89.2731 154.045 89.2731C155.209 89.2731 155.985 88.5749 156.217 87.7215C156.295 87.4887 156.295 87.256 156.295 87.1008V85.5492ZM156.605 91.0575L156.45 89.8162H156.373C155.674 90.6696 154.511 91.2902 153.037 91.2902C150.787 91.2902 149.545 89.661 149.545 87.9542C149.545 85.1613 152.028 83.6873 156.217 83.6873V83.5321C156.217 82.8339 155.907 81.5926 153.968 81.5926C152.881 81.5926 151.718 81.9029 150.942 82.4459L150.399 80.584C151.252 80.0409 152.649 79.5754 154.433 79.5754C158.002 79.5754 159.088 81.8253 159.088 84.3079V88.3421C159.088 89.3507 159.166 90.3592 159.243 91.0575H156.605Z" fill="white"/>
<path d="M165.217 76.6274V79.8083H167.932V81.903H165.217V86.8682C165.217 88.1871 165.605 88.9629 166.691 88.9629C167.156 88.9629 167.544 88.8853 167.777 88.8077L167.855 90.98C167.467 91.1351 166.691 91.2903 165.838 91.2903C164.829 91.2903 163.898 90.98 163.433 90.3593C162.812 89.7387 162.579 88.7301 162.579 87.2561V81.9806H160.95V79.8083H162.579V77.2481L165.217 76.6274Z" fill="white"/>
<path d="M170.105 79.8082H172.975V90.9799H170.105V79.8082ZM173.053 76.7049C173.053 77.5583 172.432 78.2566 171.423 78.2566C170.492 78.2566 169.872 77.5583 169.872 76.7049C169.872 75.8516 170.492 75.1533 171.423 75.1533C172.432 75.1533 173.053 75.8516 173.053 76.7049Z" fill="white"/>
<path d="M178.173 85.4717C178.173 87.644 179.259 89.2732 180.966 89.2732C182.595 89.2732 183.681 87.7216 183.681 85.4717C183.681 83.6874 182.905 81.7478 180.966 81.7478C178.949 81.6702 178.173 83.6098 178.173 85.4717ZM186.629 85.3166C186.629 89.4284 183.759 91.2903 180.888 91.2903C177.707 91.2903 175.302 89.118 175.302 85.5493C175.302 81.903 177.708 79.6531 181.121 79.6531C184.38 79.5755 186.629 81.903 186.629 85.3166Z" fill="white"/>
<path d="M188.957 83.1442C188.957 81.8253 188.957 80.8167 188.879 79.8082H191.362L191.517 81.515H191.595C192.06 80.6616 193.301 79.5754 195.163 79.5754C197.103 79.5754 199.12 80.8167 199.12 84.3855V91.0575H196.327V84.7734C196.327 83.1442 195.706 81.9805 194.155 81.9805C192.991 81.9805 192.215 82.7563 191.982 83.6097C191.905 83.8424 191.905 84.2303 191.905 84.5406V91.1351H189.034V83.1442H188.957Z" fill="white"/>
<path d="M208.042 85.5492C206.025 85.4716 204.163 85.9371 204.163 87.6439C204.163 88.73 204.861 89.2731 205.792 89.2731C206.956 89.2731 207.731 88.5749 207.964 87.7215C208.042 87.4887 208.042 87.256 208.042 87.1008V85.5492ZM208.352 91.0575L208.197 89.8162H208.119C207.421 90.6696 206.257 91.2902 204.783 91.2902C202.534 91.2902 201.292 89.661 201.292 87.9542C201.292 85.1613 203.775 83.6873 207.964 83.6873V83.5321C207.964 82.8339 207.654 81.5926 205.714 81.5926C204.628 81.5926 203.465 81.9029 202.689 82.4459L202.146 80.584C202.999 80.0409 204.395 79.5754 206.18 79.5754C209.749 79.5754 210.835 81.8253 210.835 84.3079V88.3421C210.835 89.3507 210.912 90.3592 210.99 91.0575H208.352Z" fill="white"/>
<path d="M216.653 74.6879H213.783V90.9799H216.653V74.6879Z" fill="white"/>
<path d="M235.661 90.592C234.963 90.9024 233.489 91.2903 231.627 91.2903C226.739 91.2903 223.713 88.187 223.713 83.5321C223.713 78.4118 227.282 75.3861 232.014 75.3861C233.876 75.3861 235.195 75.774 235.816 76.0843L235.195 78.3342C234.497 78.0239 233.411 77.7135 232.17 77.7135C228.989 77.7135 226.739 79.6531 226.739 83.377C226.739 86.7906 228.756 88.9628 232.17 88.9628C233.333 88.9628 234.497 88.7301 235.273 88.4198L235.661 90.592Z" fill="white"/>
<path d="M244.815 84.2304C244.815 83.2218 244.35 81.515 242.488 81.515C240.704 81.515 240.005 83.0667 239.928 84.2304H244.815ZM239.928 86.2475C240.005 88.2646 241.557 89.118 243.341 89.118C244.66 89.118 245.591 88.9628 246.445 88.5749L246.832 90.5145C245.902 90.9024 244.505 91.2127 242.953 91.2127C239.307 91.2127 237.212 88.9628 237.212 85.5493C237.212 82.446 239.074 79.4979 242.643 79.4979C246.289 79.4979 247.453 82.446 247.453 84.9286C247.453 85.4717 247.376 85.8596 247.376 86.0923H239.928V86.2475Z" fill="white"/>
<path d="M249.781 83.1442C249.781 81.8253 249.781 80.8167 249.703 79.8082H252.186L252.341 81.515H252.418C252.884 80.6616 254.125 79.5754 255.987 79.5754C257.927 79.5754 259.944 80.8167 259.944 84.3855V91.0575H257.151V84.7734C257.151 83.1442 256.53 81.9805 254.978 81.9805C253.815 81.9805 253.039 82.7563 252.806 83.6097C252.729 83.8424 252.729 84.2303 252.729 84.5406V91.1351H249.858V83.1442H249.781Z" fill="white"/>
<path d="M266.15 76.6273V79.8082H268.866V81.9028H266.15V86.8681C266.15 88.1869 266.538 88.9628 267.624 88.9628C268.09 88.9628 268.478 88.8852 268.71 88.8076L268.788 90.9799C268.4 91.135 267.624 91.2902 266.771 91.2902C265.762 91.2902 264.831 90.9799 264.366 90.3592C263.745 89.7386 263.512 88.73 263.512 87.256V81.9804H261.883V79.8082H263.512V77.248L266.15 76.6273Z" fill="white"/>
<path d="M277.943 84.2304C277.943 83.2218 277.477 81.515 275.615 81.515C273.831 81.515 273.133 83.0667 273.055 84.2304H277.943ZM272.977 86.2475C273.055 88.2646 274.607 89.118 276.391 89.118C277.71 89.118 278.641 88.9628 279.494 88.5749L279.882 90.5145C278.951 90.9024 277.555 91.2127 276.003 91.2127C272.357 91.2127 270.262 88.9628 270.262 85.5493C270.262 82.446 272.124 79.4979 275.693 79.4979C279.339 79.4979 280.503 82.446 280.503 84.9286C280.503 85.4717 280.425 85.8596 280.425 86.0923H272.977V86.2475Z" fill="white"/>
<path d="M282.83 83.4546C282.83 81.9029 282.83 80.8944 282.753 79.8858H285.235L285.313 82.0581H285.39C285.933 80.5065 287.252 79.6531 288.416 79.6531C288.726 79.6531 288.881 79.6531 289.114 79.7307V82.3684C288.881 82.2908 288.649 82.2908 288.261 82.2908C286.942 82.2908 286.011 83.1442 285.701 84.4631C285.623 84.6959 285.623 85.0062 285.623 85.3165V91.1351H282.83V83.4546Z" fill="white"/>
<path d="M290.899 88.4197C291.519 88.8076 292.761 89.1955 293.769 89.1955C295.01 89.1955 295.554 88.73 295.554 87.9542C295.554 87.1784 295.088 86.7905 293.692 86.325C291.519 85.5492 290.588 84.3855 290.588 83.0666C290.588 81.1271 292.218 79.5754 294.855 79.5754C296.097 79.5754 297.183 79.8858 297.803 80.2737L297.26 82.2908C296.795 81.9805 295.864 81.6701 294.855 81.6701C293.847 81.6701 293.304 82.1356 293.304 82.8339C293.304 83.5321 293.847 83.92 295.243 84.3855C297.26 85.0837 298.191 86.1699 298.191 87.7991C298.191 89.8162 296.64 91.2902 293.614 91.2902C292.295 91.2902 291.054 90.9799 290.2 90.5144L290.899 88.4197Z" fill="white"/>
<path d="M305.717 91.0575V81.9805H304.165V79.8082H305.717V79.3427C305.717 77.8686 306.105 76.4722 307.036 75.5412C307.889 74.7654 308.975 74.4551 309.984 74.4551C310.759 74.4551 311.303 74.5327 311.768 74.7654L311.535 76.9377C311.225 76.8601 310.837 76.7049 310.372 76.7049C308.975 76.7049 308.51 77.8687 308.51 79.2651V79.8082H310.992V81.9029H308.587V90.9799H305.717V91.0575Z" fill="white"/>
<path d="M314.949 85.4717C314.949 87.644 316.035 89.2732 317.742 89.2732C319.371 89.2732 320.457 87.7216 320.457 85.4717C320.457 83.6874 319.681 81.7478 317.742 81.7478C315.725 81.6702 314.949 83.6098 314.949 85.4717ZM323.328 85.3166C323.328 89.4284 320.457 91.2903 317.587 91.2903C314.406 91.2903 312.001 89.118 312.001 85.5493C312.001 81.903 314.406 79.6531 317.819 79.6531C321.155 79.5755 323.328 81.903 323.328 85.3166Z" fill="white"/>
<path d="M325.655 83.4546C325.655 81.9029 325.655 80.8944 325.577 79.8858H328.06L328.138 82.0581H328.215C328.758 80.5065 330.077 79.6531 331.241 79.6531C331.551 79.6531 331.706 79.6531 331.939 79.7307V82.3684C331.706 82.2908 331.474 82.2908 331.086 82.2908C329.767 82.2908 328.836 83.1442 328.526 84.4631C328.448 84.6959 328.448 85.0062 328.448 85.3165V91.1351H325.655V83.4546Z" fill="white"/>
<path d="M341.559 75.5413H338.766V91.0575H341.559V75.5413Z" fill="white"/>
<path d="M344.662 83.1442C344.662 81.8253 344.662 80.8167 344.585 79.8082H347.068L347.223 81.515H347.3C347.766 80.6616 349.007 79.5754 350.869 79.5754C352.809 79.5754 354.826 80.8167 354.826 84.3855V91.0575H352.033V84.7734C352.033 83.1442 351.412 81.9805 349.86 81.9805C348.697 81.9805 347.921 82.7563 347.688 83.6097C347.611 83.8424 347.611 84.2303 347.611 84.5406V91.1351H344.74V83.1442H344.662Z" fill="white"/>
<path d="M357.851 83.1442C357.851 81.8253 357.851 80.8167 357.774 79.8082H360.256L360.412 81.515H360.489C360.955 80.6616 362.196 79.5754 364.058 79.5754C365.997 79.5754 368.014 80.8167 368.014 84.3855V91.0575H365.222V84.7734C365.222 83.1442 364.601 81.9805 363.049 81.9805C361.886 81.9805 361.11 82.7563 360.877 83.6097C360.799 83.8424 360.799 84.2303 360.799 84.5406V91.1351H357.929V83.1442H357.851Z" fill="white"/>
<path d="M373.212 85.4717C373.212 87.644 374.299 89.2732 376.005 89.2732C377.635 89.2732 378.721 87.7216 378.721 85.4717C378.721 83.6874 377.945 81.7478 376.005 81.7478C373.988 81.6702 373.212 83.6098 373.212 85.4717ZM381.591 85.3166C381.591 89.4284 378.721 91.2903 375.85 91.2903C372.669 91.2903 370.264 89.118 370.264 85.5493C370.264 81.903 372.669 79.6531 376.083 79.6531C379.419 79.5755 381.591 81.903 381.591 85.3166Z" fill="white"/>
<path d="M385.781 79.8082L387.565 85.4717C387.875 86.4802 388.108 87.3336 388.341 88.2646H388.418C388.651 87.3336 388.884 86.4802 389.194 85.4717L390.979 79.8082H394.004L389.737 90.9799H386.944L382.755 79.8082H385.781Z" fill="white"/>
<path d="M401.53 85.5492C399.513 85.4716 397.651 85.9371 397.651 87.6439C397.651 88.73 398.349 89.2731 399.28 89.2731C400.443 89.2731 401.219 88.5749 401.452 87.7215C401.53 87.4887 401.53 87.256 401.53 87.1008V85.5492ZM401.918 91.0575L401.762 89.8162H401.685C400.987 90.6696 399.823 91.2902 398.349 91.2902C396.099 91.2902 394.858 89.661 394.858 87.9542C394.858 85.1613 397.34 83.6873 401.53 83.6873V83.5321C401.53 82.8339 401.219 81.5926 399.28 81.5926C398.194 81.5926 397.03 81.9029 396.254 82.4459L395.711 80.584C396.564 80.0409 397.961 79.5754 399.745 79.5754C403.314 79.5754 404.4 81.8253 404.4 84.3079V88.3421C404.4 89.3507 404.478 90.3592 404.555 91.0575H401.918Z" fill="white"/>
<path d="M410.529 76.6274V79.8083H413.244V81.903H410.529V86.8682C410.529 88.1871 410.917 88.9629 412.003 88.9629C412.469 88.9629 412.856 88.8853 413.089 88.8077L413.167 90.98C412.779 91.1351 412.003 91.2903 411.15 91.2903C410.141 91.2903 409.21 90.98 408.745 90.3593C408.124 89.7387 407.891 88.7301 407.891 87.2561V81.9806H406.262V79.8083H407.891V77.2481L410.529 76.6274Z" fill="white"/>
<path d="M415.339 79.8082H418.21V90.9799H415.339V79.8082ZM418.365 76.7049C418.365 77.5583 417.744 78.2566 416.736 78.2566C415.805 78.2566 415.184 77.5583 415.184 76.7049C415.184 75.8516 415.805 75.1533 416.736 75.1533C417.744 75.1533 418.365 75.8516 418.365 76.7049Z" fill="white"/>
<path d="M423.485 85.4717C423.485 87.644 424.571 89.2732 426.278 89.2732C427.907 89.2732 428.993 87.7216 428.993 85.4717C428.993 83.6874 428.218 81.7478 426.278 81.7478C424.261 81.6702 423.485 83.6098 423.485 85.4717ZM431.864 85.3166C431.864 89.4284 428.993 91.2903 426.123 91.2903C422.942 91.2903 420.537 89.118 420.537 85.5493C420.537 81.903 422.942 79.6531 426.356 79.6531C429.692 79.5755 431.864 81.903 431.864 85.3166Z" fill="white"/>
<path d="M434.191 83.1442C434.191 81.8253 434.191 80.8167 434.114 79.8082H436.596L436.752 81.515H436.829C437.295 80.6616 438.536 79.5754 440.398 79.5754C442.337 79.5754 444.355 80.8167 444.355 84.3855V91.0575H441.562V84.7734C441.562 83.1442 440.941 81.9805 439.389 81.9805C438.226 81.9805 437.45 82.7563 437.217 83.6097C437.139 83.8424 437.139 84.2303 437.139 84.5406V91.1351H434.269V83.1442H434.191Z" fill="white"/>
<path d="M455.371 76.6274V79.8083H458.086V81.903H455.371V86.8682C455.371 88.1871 455.759 88.9629 456.845 88.9629C457.311 88.9629 457.698 88.8853 457.931 88.8077L458.009 90.98C457.621 91.1351 456.845 91.2903 455.992 91.2903C454.983 91.2903 454.052 90.98 453.587 90.3593C452.966 89.7387 452.733 88.7301 452.733 87.2561V81.9806H451.104V79.8083H452.733V77.2481L455.371 76.6274Z" fill="white"/>
<path d="M462.431 85.4717C462.431 87.644 463.517 89.2732 465.224 89.2732C466.853 89.2732 467.939 87.7216 467.939 85.4717C467.939 83.6874 467.163 81.7478 465.224 81.7478C463.207 81.6702 462.431 83.6098 462.431 85.4717ZM470.81 85.3166C470.81 89.4284 467.939 91.2903 465.069 91.2903C461.888 91.2903 459.483 89.118 459.483 85.5493C459.483 81.903 461.888 79.6531 465.301 79.6531C468.637 79.5755 470.81 81.903 470.81 85.3166Z" fill="white"/>
<path d="M480.818 75.5413H478.025V91.0575H480.818V75.5413Z" fill="white"/>
<path d="M483.998 83.1444C483.998 81.8255 483.998 80.8169 483.921 79.8084H486.326L486.403 81.4376H486.481C487.024 80.5842 488.033 79.498 489.895 79.498C491.369 79.498 492.532 80.3514 492.998 81.5927H493.075C493.463 80.9721 493.929 80.5066 494.472 80.1963C495.093 79.7308 495.791 79.498 496.722 79.498C498.584 79.498 500.446 80.7393 500.446 84.3857V90.9801H497.653V84.7736C497.653 82.9116 497.032 81.8255 495.636 81.8255C494.705 81.8255 493.929 82.5237 493.696 83.2995C493.619 83.6099 493.541 83.9202 493.541 84.2305V90.9025H490.748V84.3857C490.748 82.834 490.127 81.7479 488.809 81.7479C487.722 81.7479 487.024 82.6013 486.791 83.3771C486.714 83.6874 486.636 83.9978 486.636 84.3081V90.9025H483.998V83.1444Z" fill="white"/>
<path d="M506.264 86.3251C506.264 86.6355 506.264 86.8682 506.342 87.1009C506.652 88.2647 507.661 89.0405 508.824 89.0405C510.609 89.0405 511.695 87.5664 511.695 85.3166C511.695 83.3771 510.764 81.7478 508.902 81.7478C507.738 81.7478 506.652 82.6012 506.342 83.8425C506.264 84.0753 506.264 84.308 506.264 84.5408V86.3251ZM503.471 83.5322C503.471 82.0582 503.394 80.8944 503.394 79.8083H505.876L506.032 81.5151H506.109C506.963 80.2738 508.281 79.5756 509.911 79.5756C512.471 79.5756 514.643 81.7478 514.643 85.239C514.643 89.2732 512.083 91.2128 509.523 91.2128C508.126 91.2128 506.963 90.5921 506.342 89.7387H506.264V95.5573H503.471V83.5322Z" fill="white"/>
<path d="M522.867 85.5493C520.85 85.4717 518.988 85.9372 518.988 87.644C518.988 88.7302 519.686 89.2732 520.617 89.2732C521.781 89.2732 522.556 88.575 522.789 87.7216C522.867 87.4889 522.867 87.2561 522.867 87.1009V85.5493ZM523.177 91.0576L523.022 89.8163H522.944C522.246 90.6697 521.082 91.2903 519.608 91.2903C517.358 91.2903 516.117 89.6611 516.117 87.9543C516.117 85.1614 518.6 83.6874 522.789 83.6874V83.5322C522.789 82.834 522.479 81.5927 520.539 81.5927C519.453 81.5927 518.289 81.903 517.514 82.4461L516.971 80.5841C517.824 80.0411 519.22 79.5756 521.005 79.5756C524.573 79.5756 525.66 81.8254 525.66 84.308V88.3422C525.66 89.3508 525.737 90.3594 525.815 91.0576H523.177Z" fill="white"/>
<path d="M536.831 90.6697C536.211 90.98 535.047 91.2128 533.651 91.2128C530.159 91.2128 527.909 88.9629 527.909 85.5493C527.909 82.2133 530.237 79.5756 534.116 79.5756C535.125 79.5756 536.211 79.8083 536.831 80.1186L536.288 82.2133C535.823 81.9806 535.125 81.7478 534.116 81.7478C531.944 81.7478 530.702 83.2995 530.702 85.3942C530.702 87.7216 532.176 88.9629 534.116 88.9629C535.125 88.9629 535.823 88.7302 536.366 88.4974L536.831 90.6697Z" fill="white"/>
<path d="M542.184 76.6274V79.8083H544.9V81.903H542.184V86.8682C542.184 88.1871 542.572 88.9629 543.659 88.9629C544.124 88.9629 544.512 88.8853 544.745 88.8077L544.822 90.98C544.434 91.1351 543.658 91.2903 542.805 91.2903C541.797 91.2903 540.866 90.98 540.4 90.3593C539.779 89.7387 539.547 88.7301 539.547 87.2561V81.9806H537.917V79.8083H539.547V77.2481L542.184 76.6274Z" fill="white"/>
</svg>
