<svg width="450" height="114" viewBox="0 0 450 114" fill="none" xmlns="http://www.w3.org/2000/svg">
<path d="M111.614 113.675L105.275 94.1714H109.176L111.858 103.029C112.589 105.467 113.239 107.743 113.808 110.181H113.889C114.377 107.824 115.108 105.467 115.921 103.111L118.765 94.1714H122.585L115.84 113.675H111.614Z" fill="white"/>
<path d="M128.192 94.0901V101.892H136.481V94.0901H140.056V113.594H136.481V104.98H128.192V113.594H124.616V94.0901H128.192Z" fill="white"/>
<path d="M148.102 108.149L146.395 113.675H142.738L148.996 94.1714H153.546L159.885 113.675H156.066L154.278 108.149H148.102ZM153.709 105.386L152.165 100.591C151.759 99.3723 151.434 98.0721 151.19 96.9344H151.109C150.783 98.0721 150.54 99.4536 150.215 100.591L148.671 105.386H153.709Z" fill="white"/>
<path d="M168.824 94.3339C170.368 94.0901 172.4 93.9276 174.513 93.9276C178.17 93.9276 180.689 94.659 182.477 96.203C184.346 97.747 185.483 100.022 185.483 103.354C185.483 106.849 184.264 109.449 182.477 111.156C180.526 112.944 177.438 113.837 173.619 113.837C171.506 113.837 169.962 113.756 168.824 113.594V94.3339ZM172.4 110.912C172.887 110.993 173.619 110.993 174.35 110.993C178.982 110.993 181.745 108.474 181.745 103.517C181.745 99.2098 179.307 96.7719 174.838 96.7719C173.7 96.7719 172.887 96.8531 172.4 96.9344V110.912Z" fill="white"/>
<path d="M192.391 95.5529C192.391 96.6094 191.578 97.5033 190.36 97.5033C189.141 97.5033 188.409 96.6907 188.409 95.5529C188.409 94.4152 189.222 93.6026 190.441 93.6026C191.66 93.6839 192.391 94.4965 192.391 95.5529ZM188.653 113.675V99.5349H192.229V113.675H188.653Z" fill="white"/>
<path d="M205.231 113.675V102.217H200.111V113.675H196.535V102.217H194.585V99.5349H196.535V99.2098C196.535 97.422 196.942 95.7154 198.161 94.5777C199.055 93.6838 200.355 93.115 202.143 93.115C202.874 93.115 203.687 93.2775 204.093 93.5213L203.524 96.1218C203.199 95.9592 202.711 95.878 202.224 95.878C200.599 95.878 200.111 97.2595 200.111 99.0473V99.5349H205.231V98.966C205.231 97.1782 205.718 95.3091 206.937 94.1714C207.994 93.1962 209.375 92.7899 210.594 92.7899C211.569 92.7899 212.301 92.9524 212.87 93.115L212.626 95.878C212.219 95.7154 211.732 95.6342 211.082 95.6342C209.294 95.6342 208.725 97.0969 208.725 98.8848V99.6161H211.813V102.298H208.806V113.756H205.231V113.675Z" fill="white"/>
<path d="M226.766 109.449C226.766 111.156 226.847 112.537 226.847 113.675H223.678L223.515 111.562H223.434C222.865 112.537 221.402 114 218.883 114C216.282 114 213.926 112.456 213.926 107.824V99.5349H217.501V107.255C217.501 109.612 218.233 111.074 220.102 111.074C221.483 111.074 222.459 110.099 222.865 109.124C222.946 108.799 223.027 108.393 223.027 107.986V99.4536H226.603V109.449H226.766Z" fill="white"/>
<path d="M230.585 110.343C231.398 110.831 232.942 111.318 234.242 111.318C235.786 111.318 236.517 110.668 236.517 109.774C236.517 108.799 235.949 108.311 234.161 107.743C231.398 106.767 230.26 105.305 230.26 103.598C230.26 101.079 232.292 99.1285 235.624 99.1285C237.168 99.1285 238.549 99.5349 239.362 99.9412L238.63 102.46C238.061 102.135 236.924 101.648 235.624 101.648C234.323 101.648 233.673 102.217 233.673 103.111C233.673 104.004 234.323 104.411 236.111 105.061C238.63 105.955 239.849 107.255 239.849 109.368C239.849 111.887 237.818 113.837 234.079 113.837C232.373 113.837 230.829 113.431 229.772 112.862L230.585 110.343Z" fill="white"/>
<path d="M246.676 95.5529C246.676 96.6094 245.864 97.5033 244.645 97.5033C243.426 97.5033 242.694 96.6907 242.694 95.5529C242.694 94.4152 243.507 93.6026 244.726 93.6026C245.945 93.6839 246.676 94.4965 246.676 95.5529ZM242.857 113.675V99.5349H246.433V113.675H242.857Z" fill="white"/>
<path d="M263.823 106.442C263.823 111.643 260.166 113.919 256.591 113.919C252.609 113.919 249.521 111.156 249.521 106.686C249.521 102.054 252.527 99.2098 256.834 99.2098C260.979 99.2098 263.823 102.135 263.823 106.442ZM253.177 106.605C253.177 109.368 254.478 111.4 256.672 111.4C258.703 111.4 260.085 109.368 260.085 106.524C260.085 104.33 259.11 101.81 256.672 101.81C254.153 101.81 253.177 104.248 253.177 106.605Z" fill="white"/>
<path d="M266.829 103.761C266.829 102.135 266.829 100.754 266.748 99.5349H269.917L270.08 101.648H270.161C270.73 100.51 272.274 99.2098 274.631 99.2098C277.069 99.2098 279.669 100.835 279.669 105.305V113.675H276.093V105.711C276.093 103.679 275.362 102.135 273.412 102.135C272.03 102.135 270.974 103.111 270.649 104.248C270.567 104.573 270.486 104.98 270.486 105.386V113.675H266.911V103.761H266.829Z" fill="white"/>
<path d="M302.992 106.442C302.992 111.643 299.335 113.919 295.759 113.919C291.778 113.919 288.689 111.156 288.689 106.686C288.689 102.054 291.696 99.2098 296.003 99.2098C300.148 99.2098 302.992 102.135 302.992 106.442ZM292.346 106.605C292.346 109.368 293.647 111.4 295.841 111.4C297.872 111.4 299.254 109.368 299.254 106.524C299.254 104.33 298.279 101.81 295.841 101.81C293.322 101.81 292.346 104.248 292.346 106.605Z" fill="white"/>
<path d="M306.405 113.675V102.217H304.455V99.5349H306.405V98.966C306.405 97.1782 306.893 95.3091 308.112 94.1714C309.168 93.1962 310.55 92.7899 311.769 92.7899C312.744 92.7899 313.475 92.9524 314.044 93.115L313.801 95.878C313.394 95.7154 312.907 95.6342 312.256 95.6342C310.469 95.6342 309.9 97.0969 309.9 98.8848V99.6161H312.988V102.298H309.9V113.756H306.405V113.675Z" fill="white"/>
<path d="M332.491 104.98H325.096V110.749H333.304V113.675H321.521V94.1714H332.898V97.0969H325.096V102.135H332.491V104.98Z" fill="white"/>
<path d="M338.749 99.5349L340.456 102.217C340.943 102.948 341.349 103.679 341.756 104.411H341.837C342.243 103.598 342.65 102.867 343.056 102.217L344.6 99.6162H348.501L343.787 106.361L348.582 113.675H344.519L342.812 110.831C342.325 110.099 341.918 109.287 341.512 108.555H341.431C341.024 109.368 340.618 110.099 340.13 110.831L338.505 113.675H334.604L339.48 106.524L334.767 99.6162H338.749V99.5349Z" fill="white"/>
<path d="M360.609 113.187C359.878 113.512 358.415 113.919 356.627 113.919C352.239 113.919 349.313 111.074 349.313 106.686C349.313 102.46 352.239 99.1285 357.196 99.1285C358.496 99.1285 359.797 99.4536 360.609 99.7787L359.959 102.46C359.39 102.217 358.578 101.892 357.277 101.892C354.514 101.892 352.97 103.923 352.97 106.442C352.97 109.368 354.84 110.993 357.277 110.993C358.496 110.993 359.39 110.749 360.122 110.424L360.609 113.187Z" fill="white"/>
<path d="M365.566 107.58C365.647 110.099 367.679 111.237 369.873 111.237C371.498 111.237 372.717 110.993 373.774 110.587L374.261 113.025C373.042 113.512 371.336 113.919 369.304 113.919C364.753 113.919 361.99 111.074 361.99 106.767C361.99 102.867 364.347 99.2098 368.898 99.2098C373.53 99.2098 374.993 102.948 374.993 106.117C374.993 106.767 374.911 107.336 374.911 107.661H365.566V107.58ZM371.742 105.061C371.742 103.761 371.173 101.648 368.816 101.648C366.622 101.648 365.647 103.679 365.566 105.061H371.742Z" fill="white"/>
<path d="M378.081 93.0337H381.657V113.594H378.081V93.0337Z" fill="white"/>
<path d="M385.639 93.0337H389.214V113.594H385.639V93.0337Z" fill="white"/>
<path d="M395.634 107.58C395.715 110.099 397.747 111.237 399.941 111.237C401.567 111.237 402.786 110.993 403.842 110.587L404.33 113.025C403.111 113.512 401.404 113.919 399.372 113.919C394.822 113.919 392.059 111.074 392.059 106.767C392.059 102.867 394.415 99.2098 398.966 99.2098C403.598 99.2098 405.061 102.948 405.061 106.117C405.061 106.767 404.98 107.336 404.98 107.661H395.634V107.58ZM401.892 105.061C401.892 103.761 401.323 101.648 398.966 101.648C396.772 101.648 395.797 103.679 395.716 105.061H401.892Z" fill="white"/>
<path d="M408.149 103.761C408.149 102.135 408.149 100.754 408.067 99.5349H411.237L411.399 101.648H411.48C412.049 100.51 413.593 99.2098 415.95 99.2098C418.388 99.2098 420.988 100.835 420.988 105.305V113.675H417.413V105.711C417.413 103.679 416.681 102.135 414.731 102.135C413.35 102.135 412.293 103.111 411.968 104.248C411.887 104.573 411.806 104.98 411.806 105.386V113.675H408.149V103.761Z" fill="white"/>
<path d="M435.21 113.187C434.478 113.512 433.016 113.919 431.228 113.919C426.84 113.919 423.914 111.074 423.914 106.686C423.914 102.46 426.84 99.1285 431.797 99.1285C433.097 99.1285 434.397 99.4536 435.21 99.7787L434.56 102.46C433.991 102.217 433.178 101.892 431.878 101.892C429.115 101.892 427.571 103.923 427.571 106.442C427.571 109.368 429.44 110.993 431.878 110.993C433.097 110.993 433.991 110.749 434.722 110.424L435.21 113.187Z" fill="white"/>
<path d="M440.167 107.58C440.249 110.099 442.28 111.237 444.474 111.237C446.1 111.237 447.319 110.993 448.375 110.587L448.863 113.025C447.644 113.512 445.937 113.919 443.906 113.919C439.355 113.919 436.592 111.074 436.592 106.767C436.592 102.867 438.948 99.2098 443.499 99.2098C448.131 99.2098 449.594 102.948 449.594 106.117C449.594 106.767 449.513 107.336 449.513 107.661H440.167V107.58ZM446.425 105.061C446.425 103.761 445.856 101.648 443.499 101.648C441.305 101.648 440.33 103.679 440.249 105.061H446.425Z" fill="white"/>
<path d="M131.362 4.45521L131.849 36.2297L121.203 30.3786L128.68 10.3875L113.646 28.6721L106.007 28.4283L131.362 4.45521ZM106.169 52.0763C106.576 54.0267 106.738 55.977 106.738 57.9274C106.738 89.3768 40.5889 118.063 17.9161 103.111C-4.75677 88.1578 -7.84483 19.4079 23.1983 3.64256C50.3407 -10.1724 93.9798 17.7826 104.382 45.9815C97.3929 56.0583 85.2845 72.555 68.0564 78.8937C63.4243 80.6002 59.5236 80.4377 56.9231 78.4061C54.6477 76.6182 53.51 73.6115 53.8351 69.5482C68.2189 60.284 79.1084 48.4194 80.3273 40.618C80.8149 37.6925 80.0023 35.0107 78.1332 32.9791C76.1828 30.8662 73.3386 29.8098 70.4943 30.0536C55.6229 31.5163 42.6205 52.1576 42.2955 68.248C36.2006 71.336 31.2435 73.0426 27.7491 73.1239C26.2863 73.2051 25.3112 72.7988 24.661 71.9049C23.1983 69.9545 23.3608 65.6475 25.1486 59.959C27.2615 53.2953 30.8371 47.6068 33.6814 43.0559C36.3631 38.6676 38.2322 35.8234 37.4196 34.0355C36.7695 32.5728 34.7379 31.4351 32.4624 31.2726C30.8371 31.11 26.6114 31.2726 23.3608 36.0672C13.3652 50.9386 9.87087 65.0787 14.0154 74.0178C15.7219 77.6747 18.6475 79.9501 22.0606 80.3564C27.7491 81.0065 34.9816 79.3 43.1894 75.4805C43.8395 77.756 44.8147 79.7876 46.1149 81.4129C47.984 83.7695 51.6409 85.6386 56.4355 86.37C62.7742 87.3452 71.0632 86.2075 79.5147 81.2503C90.2416 74.9117 98.4494 64.4286 103.407 56.7084C104.3 55.1644 105.276 53.5391 106.169 52.0763ZM35.8756 24.04C36.6069 24.7714 37.6634 25.259 38.8011 25.4215C39.2887 25.5028 39.8575 25.5028 40.3451 25.5028C42.1329 25.3402 43.7582 24.5276 44.9772 23.3086C46.6838 21.5208 47.5777 19.4892 47.4964 17.7014C47.4151 16.2386 46.8463 14.9384 45.6273 13.8819C43.3519 11.8503 38.9636 12.5004 36.3632 15.1822C35.1442 16.4824 34.4128 18.1077 34.2503 19.733C34.2503 21.4395 34.8191 22.9836 35.8756 24.04ZM72.0383 37.855C71.9571 37.7737 71.7945 37.7737 71.632 37.6925C71.307 37.6112 70.9819 37.6925 70.5756 37.855C68.544 38.6676 65.6184 41.5932 62.8554 45.7377C60.0924 49.8822 57.6545 54.8393 56.0292 59.8777C66.7561 52.4826 73.0948 43.9498 73.0135 39.7241C73.0135 38.9114 72.6885 38.2613 72.0383 37.855Z" fill="white"/>
</svg>
