<svg width="564" height="114" viewBox="0 0 564 114" fill="none" xmlns="http://www.w3.org/2000/svg">
<path d="M65.6647 35.5518C63.7443 36.2904 61.0853 39.0479 58.4755 42.9379C55.8658 46.8279 53.6499 51.4566 52.0742 56.1344C62.1193 49.2407 68.0282 41.2145 67.9297 37.3245C67.9297 36.4874 67.6343 35.8965 67.0434 35.5026C66.9449 35.4533 66.7972 35.4041 66.6987 35.3549C66.6495 35.3549 66.551 35.3549 66.5018 35.3549C66.2063 35.4041 65.9601 35.4533 65.6647 35.5518ZM98.6559 26.7377L105.845 26.9347L119.928 9.84815L112.936 28.5596L122.932 34.0746L122.488 4.33318L98.6559 26.7377ZM35.9725 23.8818C34.8892 23.734 33.9537 23.2909 33.2151 22.5523C32.181 21.5182 31.6394 20.0902 31.7378 18.5145C31.8363 16.9881 32.5257 15.4616 33.6582 14.2306C36.1203 11.6701 40.2565 11.0792 42.3738 12.9996C43.5064 14.0336 44.0972 15.2154 44.1465 16.5941C44.1957 18.3176 43.3586 20.1395 41.7337 21.8136C40.6012 22.9954 39.0255 23.7833 37.4005 23.8818C37.2036 23.8818 37.0066 23.8818 36.8589 23.8818C36.6127 23.9802 36.3172 23.931 35.9725 23.8818ZM36.4649 0C31.0977 0 25.9767 1.03406 21.3481 3.39761C-7.70395 18.1698 -4.84799 82.429 16.3747 96.4626C19.4769 98.5307 23.4654 99.7125 27.9955 100.106H36.3172C62.8579 97.9398 99.4438 76.8648 99.4438 54.2141C99.4438 52.4414 99.2468 50.6195 98.9021 48.7483C98.1143 50.1763 97.1787 51.6043 96.2431 53.0815C91.5653 60.2707 83.933 70.0696 73.8879 76.0277C66.0586 80.6563 58.2786 81.6904 52.3204 80.8041C47.8888 80.1147 44.3927 78.342 42.6693 76.1262C41.4383 74.5997 40.5027 72.7286 39.9118 70.562C32.2795 74.1565 25.4843 75.7323 20.1663 75.1414C16.9656 74.7967 14.2574 72.6301 12.6817 69.2325C8.84092 60.9108 12.0908 47.6158 21.3973 33.7299C24.401 29.249 28.3402 29.1013 29.9159 29.249C32.0333 29.446 33.9537 30.5293 34.5446 31.8588C35.2339 33.4837 33.5597 36.1919 30.9992 40.2789C28.3402 44.5629 24.9919 49.8809 23.0222 56.0852C21.3481 61.354 21.1511 65.3917 22.5298 67.2136C23.17 68.0507 24.1055 68.3954 25.4843 68.3461C28.8326 68.1984 33.412 66.672 39.1239 63.7668C39.4686 48.6991 51.5818 29.3967 65.5169 28.0672C68.1759 27.821 70.8842 28.8058 72.7061 30.7755C74.4787 32.6959 75.2174 35.2071 74.7742 37.9154C73.5924 45.203 63.3996 56.3314 49.9569 64.9485C49.7107 68.7401 50.7447 71.596 52.8621 73.221C55.2749 75.0921 58.9679 75.2399 63.3011 73.6642C79.4028 67.7553 90.7282 52.3429 97.2279 42.8887C89.3002 21.4197 60.5929 0 36.4649 0Z" fill="white"/>
<path d="M125.64 57.1193L121.996 45.8924H123.572L125.344 51.4073C125.837 52.9338 126.231 54.3125 126.526 55.5928H126.575C126.871 54.3125 127.363 52.8846 127.856 51.4073L129.776 45.8431H131.302L127.265 57.07H125.64V57.1193Z" fill="white"/>
<path d="M135.389 45.8923V50.5702H140.806V45.8923H142.283V57.1192H140.806V51.8505H135.389V57.1192H133.912V45.8923H135.389Z" fill="white"/>
<path d="M151.787 52.4413L150.703 49.1915C150.457 48.4528 150.309 47.8127 150.112 47.1234H150.063C149.915 47.8127 149.719 48.4528 149.472 49.1422L148.389 52.3921H151.787V52.4413ZM148.094 53.5739L146.912 57.1192H145.435L149.275 45.8923H151.048L154.889 57.1192H153.362L152.181 53.5739H148.094Z" fill="white"/>
<path d="M162.964 57.1192V45.8923H164.54L168.135 51.6043C168.972 52.9338 169.612 54.1155 170.153 55.2481H170.203C170.055 53.7216 170.055 52.3921 170.055 50.6194V45.9416H171.434V57.1685H169.956L166.411 51.4565C165.623 50.2255 164.885 48.9453 164.294 47.7142H164.244C164.343 49.1422 164.343 50.4717 164.343 52.3429V57.1685H162.964V57.1192Z" fill="white"/>
<path d="M180.888 52.4413L179.805 49.1915C179.558 48.4528 179.411 47.8127 179.214 47.1234H179.164C179.017 47.8127 178.82 48.4528 178.574 49.1422L177.49 52.3921H180.888V52.4413ZM177.195 53.5739L176.013 57.1192H174.487L178.327 45.8923H180.1L183.941 57.1192H182.365L181.183 53.5739H177.195Z" fill="white"/>
<path d="M187.929 47.1234H184.532V45.8923H192.804V47.1234H189.406V57.1192H187.929V47.1234Z" fill="white"/>
<path d="M196.99 45.8923H195.562V57.1192H196.99V45.8923Z" fill="white"/>
<path d="M201.914 51.5552C201.914 53.968 203.194 56.0853 205.508 56.0853C207.822 56.0853 209.103 53.968 209.103 51.4075C209.103 49.1916 207.921 46.8281 205.508 46.8281C203.095 46.8773 201.914 49.0932 201.914 51.5552ZM210.629 51.4075C210.629 55.2975 208.266 57.3164 205.41 57.3164C202.455 57.3164 200.338 55.0021 200.338 51.6044C200.338 48.0099 202.554 45.6956 205.557 45.6956C208.61 45.6956 210.629 48.0591 210.629 51.4075Z" fill="white"/>
<path d="M213.978 57.1193V45.8925H215.553L219.148 51.6044C219.985 52.9339 220.625 54.1157 221.167 55.2482H221.216C221.068 53.7217 221.068 52.3922 221.068 50.6196V45.9417H222.447V57.1686H220.97L217.424 51.4566C216.637 50.2256 215.898 48.9454 215.307 47.7144H215.258C215.356 49.1423 215.356 50.4718 215.356 52.343V57.1686H213.978V57.1193Z" fill="white"/>
<path d="M231.901 52.4415L230.818 49.1916C230.572 48.453 230.424 47.8128 230.227 47.1235H230.178C230.03 47.8128 229.833 48.453 229.587 49.1423L228.504 52.3922H231.901V52.4415ZM228.208 53.574L227.026 57.1193H225.5L229.341 45.8925H231.113L234.954 57.1193H233.378L232.197 53.574H228.208Z" fill="white"/>
<path d="M238.106 45.8923H239.533V55.9374H244.359V57.1192H238.106V45.8923Z" fill="white"/>
<path d="M260.264 56.7747C259.722 57.0209 258.639 57.3164 257.309 57.3164C254.158 57.3164 251.745 55.2975 251.745 51.6044C251.745 48.1084 254.109 45.6956 257.605 45.6956C258.984 45.6956 259.87 45.991 260.264 46.188L259.919 47.3697C259.378 47.1235 258.59 46.9266 257.654 46.9266C254.995 46.9266 253.272 48.6008 253.272 51.5552C253.272 54.3127 254.847 56.0853 257.605 56.0853C258.491 56.0853 259.378 55.8884 259.968 55.6422L260.264 56.7747Z" fill="white"/>
<path d="M269.373 51.8505H265.04V55.9374H269.915V57.1192H263.563V45.8923H269.62V47.1234H265.04V50.6687H269.373V51.8505Z" fill="white"/>
<path d="M273.263 57.1192V45.8923H274.839L278.434 51.6043C279.271 52.9338 279.911 54.1155 280.453 55.2481H280.502C280.354 53.7216 280.354 52.3921 280.354 50.6194V45.9416H281.733V57.1685H280.256L276.71 51.4565C275.922 50.2255 275.184 48.9453 274.593 47.7142H274.544C274.642 49.1422 274.642 50.4717 274.642 52.3429V57.1685H273.263V57.1192Z" fill="white"/>
<path d="M287.838 47.1234H284.392V45.8923H292.713V47.1234H289.316V57.1192H287.838V47.1234Z" fill="white"/>
<path d="M301.281 51.8505H296.899V55.9374H301.774V57.1192H295.471V45.8923H301.528V47.1234H296.899V50.6687H301.281V51.8505Z" fill="white"/>
<path d="M306.599 51.1612H308.076C309.652 51.1612 310.637 50.3241 310.637 49.0438C310.637 47.6159 309.603 46.9757 308.076 46.9265C307.387 46.9265 306.895 46.9757 306.648 47.0742V51.1612H306.599ZM305.122 46.0401C305.861 45.8924 306.895 45.7939 307.929 45.7939C309.455 45.7939 310.489 46.0894 311.179 46.7295C311.72 47.2219 312.065 48.0098 312.065 48.8469C312.065 50.3241 311.129 51.3089 309.948 51.7028V51.7521C310.834 52.0475 311.326 52.8354 311.622 54.0172C311.966 55.5929 312.262 56.6761 312.459 57.1193H310.982C310.785 56.8239 310.538 55.8391 310.243 54.4111C309.898 52.8846 309.307 52.2937 307.978 52.2445H306.599V57.1193H305.171V46.0401H305.122Z" fill="white"/>
<path d="M315.364 55.3467C316.004 55.7407 316.989 56.0854 317.974 56.0854C319.451 56.0854 320.337 55.2975 320.337 54.165C320.337 53.1309 319.747 52.4908 318.22 51.9491C316.398 51.309 315.266 50.3242 315.266 48.7485C315.266 46.9758 316.694 45.6956 318.909 45.6956C320.042 45.6956 320.879 45.9418 321.371 46.2372L320.978 47.419C320.584 47.222 319.845 46.8773 318.86 46.8773C317.334 46.8773 316.743 47.8129 316.743 48.5515C316.743 49.5856 317.432 50.1272 318.959 50.7181C320.879 51.4567 321.815 52.3923 321.815 54.0172C321.815 55.7407 320.534 57.2671 317.875 57.2671C316.792 57.2671 315.61 56.9717 315.019 56.5285L315.364 55.3467Z" fill="white"/>
<path d="M330.284 45.8923H336.341V47.1234H331.712V50.8656H335.947V52.0474H331.712V57.1192H330.284V45.8923Z" fill="white"/>
<path d="M340.723 51.5552C340.723 53.968 342.003 56.0853 344.318 56.0853C346.632 56.0853 347.912 53.968 347.912 51.4075C347.912 49.1916 346.731 46.8281 344.318 46.8281C341.954 46.8773 340.723 49.0932 340.723 51.5552ZM349.439 51.4075C349.439 55.2975 347.075 57.3164 344.219 57.3164C341.265 57.3164 339.147 55.0021 339.147 51.6044C339.147 48.0099 341.363 45.6956 344.367 45.6956C347.469 45.6956 349.439 48.0591 349.439 51.4075Z" fill="white"/>
<path d="M354.264 51.1612H355.742C357.317 51.1612 358.302 50.3241 358.302 49.0438C358.302 47.6159 357.268 46.9757 355.742 46.9265C355.052 46.9265 354.56 46.9757 354.314 47.0742V51.1612H354.264ZM352.836 46.0401C353.575 45.8924 354.609 45.7939 355.643 45.7939C357.17 45.7939 358.204 46.0894 358.893 46.7295C359.435 47.2219 359.779 48.0098 359.779 48.8469C359.779 50.3241 358.844 51.3089 357.662 51.7028V51.7521C358.548 52.0475 359.041 52.8354 359.336 54.0172C359.681 55.5929 359.976 56.6761 360.173 57.1193H358.696C358.499 56.8239 358.253 55.8391 357.957 54.4111C357.613 52.8846 357.022 52.2937 355.692 52.2445H354.314V57.1193H352.886V46.0401H352.836Z" fill="white"/>
<path d="M369.677 45.8923H368.249V57.1192H369.677V45.8923Z" fill="white"/>
<path d="M373.714 57.1193V45.8925H375.29L378.885 51.6044C379.722 52.9339 380.362 54.1157 380.903 55.2482H380.953C380.805 53.7217 380.805 52.3922 380.805 50.6196V45.9417H382.184V57.1686H380.706L377.161 51.4566C376.373 50.2256 375.635 48.9454 375.044 47.7144H374.995C375.093 49.1423 375.093 50.4718 375.093 52.343V57.1686H373.714V57.1193Z" fill="white"/>
<path d="M386.172 57.1193V45.8925H387.748L391.343 51.6044C392.18 52.9339 392.82 54.1157 393.362 55.2482H393.411C393.263 53.7217 393.263 52.3922 393.263 50.6196V45.9417H394.642V57.1686H393.165L389.619 51.4566C388.831 50.2256 388.093 48.9454 387.502 47.7144H387.453C387.551 49.1423 387.551 50.4718 387.551 52.343V57.1686H386.172V57.1193Z" fill="white"/>
<path d="M399.467 51.5552C399.467 53.968 400.797 56.0853 403.062 56.0853C405.376 56.0853 406.656 53.968 406.656 51.4075C406.656 49.1916 405.475 46.8281 403.062 46.8281C400.698 46.8773 399.467 49.0932 399.467 51.5552ZM408.232 51.4075C408.232 55.2975 405.869 57.3164 403.013 57.3164C400.058 57.3164 397.941 55.0021 397.941 51.6044C397.941 48.0099 400.157 45.6956 403.16 45.6956C406.213 45.6956 408.232 48.0591 408.232 51.4075Z" fill="white"/>
<path d="M414.043 57.1194L410.399 45.8925H411.974L413.747 51.4075C414.239 52.9339 414.633 54.3127 414.929 55.5929H414.978C415.274 54.3127 415.766 52.8847 416.258 51.4075L418.179 45.8433H419.705L415.667 57.0701H414.043V57.1194Z" fill="white"/>
<path d="M426.894 52.4415L425.811 49.1916C425.565 48.453 425.417 47.8128 425.22 47.1235H425.171C425.023 47.8128 424.826 48.453 424.58 49.1423L423.497 52.3922H426.894V52.4415ZM423.201 53.574L422.019 57.1193H420.493L424.334 45.8925H426.106L429.947 57.1193H428.421L427.239 53.574H423.201Z" fill="white"/>
<path d="M433.936 47.1234H430.489V45.8923H438.811V47.1234H435.364V57.1192H433.936V47.1234Z" fill="white"/>
<path d="M442.947 45.8923H441.519V57.1192H442.947V45.8923Z" fill="white"/>
<path d="M447.871 51.5552C447.871 53.968 449.151 56.0853 451.465 56.0853C453.78 56.0853 455.06 53.968 455.06 51.4075C455.06 49.1916 453.878 46.8281 451.465 46.8281C449.102 46.8773 447.871 49.0932 447.871 51.5552ZM456.586 51.4075C456.586 55.2975 454.223 57.3164 451.367 57.3164C448.412 57.3164 446.295 55.0021 446.295 51.6044C446.295 48.0099 448.511 45.6956 451.515 45.6956C454.617 45.6956 456.586 48.0591 456.586 51.4075Z" fill="white"/>
<path d="M459.935 57.1193V45.8925H461.511L465.105 51.6044C465.942 52.9339 466.582 54.1157 467.124 55.2482H467.173C467.026 53.7217 467.026 52.3922 467.026 50.6196V45.9417H468.404V57.1686H466.927L463.382 51.4566C462.594 50.2256 461.855 48.9454 461.264 47.7144H461.215C461.314 49.1423 461.314 50.4718 461.314 52.343V57.1686H459.935V57.1193Z" fill="white"/>
<path d="M478.843 47.1234H475.446V45.8923H483.767V47.1234H480.321V57.1192H478.843V47.1234Z" fill="white"/>
<path d="M486.919 51.5552C486.919 53.968 488.248 56.0853 490.513 56.0853C492.827 56.0853 494.108 53.968 494.108 51.4075C494.108 49.1916 492.926 46.8281 490.513 46.8281C488.1 46.8773 486.919 49.0932 486.919 51.5552ZM495.634 51.4075C495.634 55.2975 493.271 57.3164 490.415 57.3164C487.46 57.3164 485.343 55.0021 485.343 51.6044C485.343 48.0099 487.559 45.6956 490.562 45.6956C493.665 45.6956 495.634 48.0591 495.634 51.4075Z" fill="white"/>
<path d="M505.433 45.8923H504.005V57.1192H505.433V45.8923Z" fill="white"/>
<path d="M518.925 52.1953C518.827 50.6196 518.728 48.7484 518.778 47.3204H518.728C518.334 48.6499 517.891 50.0287 517.3 51.6044L515.331 57.0701H514.247L512.426 51.7029C511.884 50.1272 511.441 48.6499 511.145 47.3204H511.096C511.047 48.6992 510.998 50.6196 510.899 52.2937L510.604 57.1193H509.225L510.013 45.8925H511.884L513.804 51.3089C514.247 52.6877 514.641 53.9187 514.937 55.1005H514.986C515.282 53.9679 515.675 52.7369 516.168 51.3089L518.187 45.8925H520.058L520.747 57.1193H519.319L518.925 52.1953Z" fill="white"/>
<path d="M525.77 51.4567C526.065 51.5552 526.508 51.5552 526.952 51.5552C528.724 51.5552 529.758 50.7181 529.758 49.1424C529.758 47.6652 528.724 46.9266 527.099 46.9266C526.459 46.9266 525.967 46.9758 525.721 47.025V51.4567H525.77ZM524.342 46.0402C525.031 45.9417 525.967 45.8433 527.148 45.8433C528.576 45.8433 529.611 46.1879 530.3 46.7788C530.94 47.3205 531.285 48.1083 531.285 49.1424C531.285 50.1764 530.989 50.9643 530.398 51.5552C529.611 52.3923 528.38 52.7862 526.952 52.7862C526.508 52.7862 526.114 52.7862 525.77 52.6877V57.2179H524.342V46.0402Z" fill="white"/>
<path d="M538.769 52.4415L537.686 49.1916C537.44 48.453 537.292 47.8128 537.095 47.1235H537.046C536.898 47.8128 536.701 48.453 536.455 49.1423L535.372 52.3922H538.769V52.4415ZM535.076 53.574L533.894 57.1193H532.417L536.258 45.8925H538.031L541.871 57.1193H540.296L539.114 53.574H535.076Z" fill="white"/>
<path d="M552.556 56.7747C552.015 57.0209 550.931 57.3164 549.602 57.3164C546.451 57.3164 544.038 55.2975 544.038 51.6044C544.038 48.1084 546.401 45.6956 549.897 45.6956C551.276 45.6956 552.162 45.991 552.556 46.188L552.212 47.3697C551.67 47.1235 550.882 46.9266 549.947 46.9266C547.288 46.9266 545.564 48.6008 545.564 51.5552C545.564 54.3127 547.14 56.0853 549.897 56.0853C550.784 56.0853 551.67 55.8884 552.261 55.6422L552.556 56.7747Z" fill="white"/>
<path d="M558.416 47.1234H555.019V45.8923H563.34V47.1234H559.894V57.1192H558.416V47.1234Z" fill="white"/>
<path d="M122.784 107.541C121.848 107.541 121.11 106.803 121.11 105.867C121.11 104.932 121.848 104.193 122.784 104.193C123.719 104.193 124.458 104.932 124.458 105.867C124.458 106.803 123.67 107.541 122.784 107.541ZM122.784 101.632C120.42 101.632 118.5 103.553 118.5 105.916C118.5 109.708 122.784 113.352 122.784 113.352C122.784 113.352 127.068 109.462 127.068 105.916C127.068 103.553 125.147 101.632 122.784 101.632Z" fill="white"/>
<path d="M137.901 113.352L134.454 102.815H135.931L137.556 108.034C137.999 109.462 138.393 110.742 138.689 111.973H138.738C139.033 110.742 139.476 109.413 139.92 108.034L141.692 102.815H143.17L139.378 113.352H137.901Z" fill="white"/>
<path d="M145.139 110.004L144.056 113.303H142.628L146.222 102.765H147.847L151.442 113.303H149.965L148.832 110.004H145.139ZM148.586 108.97L147.552 105.917C147.306 105.227 147.158 104.587 147.01 103.996H146.961C146.813 104.637 146.616 105.277 146.419 105.917L145.385 108.97H148.586Z" fill="white"/>
<path d="M156.317 102.913C156.957 102.815 157.843 102.716 158.927 102.716C160.256 102.716 161.241 103.012 161.881 103.603C162.472 104.095 162.817 104.883 162.817 105.818C162.817 106.754 162.521 107.542 161.979 108.083C161.241 108.871 160.108 109.265 158.779 109.265C158.385 109.265 157.991 109.265 157.696 109.167V113.401H156.317V102.913ZM157.696 107.985C157.991 108.083 158.385 108.083 158.828 108.083C160.453 108.083 161.487 107.296 161.487 105.818C161.487 104.44 160.502 103.75 158.976 103.75C158.385 103.75 157.942 103.799 157.696 103.849V107.985Z" fill="white"/>
<path d="M166.017 102.765V109.019C166.017 111.382 167.051 112.367 168.479 112.367C170.055 112.367 171.04 111.333 171.04 109.019V102.765H172.418V108.92C172.418 112.17 170.695 113.5 168.43 113.5C166.263 113.5 164.638 112.269 164.638 108.97V102.765H166.017Z" fill="white"/>
<path d="M182.808 112.86C182.217 113.057 180.986 113.451 179.558 113.451C177.983 113.451 176.653 113.057 175.619 112.072C174.733 111.186 174.142 109.807 174.142 108.133C174.142 104.981 176.308 102.667 179.854 102.667C181.085 102.667 182.02 102.913 182.464 103.159L182.119 104.292C181.577 104.046 180.839 103.849 179.805 103.849C177.244 103.849 175.57 105.424 175.57 108.083C175.57 110.742 177.195 112.318 179.657 112.318C180.543 112.318 181.183 112.17 181.479 112.023V108.871H179.312V107.788H182.808V112.86Z" fill="white"/>
<path d="M190.342 108.379H186.255V112.17H190.835V113.303H184.926V102.765H190.638V103.898H186.304V107.246H190.391V108.379H190.342Z" fill="white"/>
<path d="M194.823 103.947H191.622V102.765H199.452V103.947H196.251V113.352H194.872V103.947H194.823Z" fill="white"/>
<path d="M203.735 111.678C204.326 112.072 205.262 112.367 206.198 112.367C207.576 112.367 208.413 111.629 208.413 110.545C208.413 109.561 207.872 109.019 206.444 108.428C204.72 107.837 203.637 106.902 203.637 105.424C203.637 103.799 205.016 102.568 207.035 102.568C208.118 102.568 208.906 102.815 209.349 103.061L208.955 104.193C208.61 103.996 207.921 103.701 206.936 103.701C205.508 103.701 204.967 104.538 204.967 105.277C204.967 106.262 205.607 106.754 207.084 107.296C208.857 107.985 209.792 108.822 209.792 110.398C209.792 112.023 208.61 113.451 206.099 113.451C205.065 113.451 203.982 113.155 203.391 112.761L203.735 111.678Z" fill="white"/>
<path d="M220.674 107.936C220.674 111.58 218.458 113.5 215.799 113.5C212.993 113.5 211.072 111.333 211.072 108.133C211.072 104.784 213.141 102.568 215.947 102.568C218.803 102.618 220.674 104.834 220.674 107.936ZM212.451 108.133C212.451 110.398 213.682 112.417 215.799 112.417C217.966 112.417 219.197 110.447 219.197 108.034C219.197 105.917 218.114 103.75 215.849 103.75C213.584 103.75 212.451 105.818 212.451 108.133Z" fill="white"/>
<path d="M223.776 102.765V109.019C223.776 111.382 224.811 112.367 226.239 112.367C227.814 112.367 228.799 111.333 228.799 109.019V102.765H230.178V108.92C230.178 112.17 228.454 113.5 226.189 113.5C224.023 113.5 222.398 112.269 222.398 108.97V102.765H223.776Z" fill="white"/>
<path d="M232.541 113.352V102.815H234.019L237.416 108.133C238.204 109.364 238.795 110.496 239.287 111.579H239.337C239.189 110.151 239.189 108.871 239.189 107.246V102.815H240.469V113.352H239.09L235.742 107.985C235.003 106.803 234.314 105.621 233.772 104.44H233.723C233.822 105.769 233.822 107.049 233.822 108.773V113.303H232.541V113.352Z" fill="white"/>
<path d="M242.833 102.913C243.67 102.765 244.654 102.716 245.738 102.716C247.707 102.716 249.086 103.159 250.022 104.046C250.957 104.883 251.499 106.114 251.499 107.837C251.499 109.561 250.957 110.989 249.972 111.924C248.988 112.909 247.363 113.451 245.295 113.451C244.31 113.451 243.522 113.401 242.833 113.303V102.913ZM244.211 112.269C244.556 112.318 245.048 112.367 245.59 112.367C248.495 112.367 250.071 110.742 250.071 107.886C250.071 105.375 248.692 103.799 245.787 103.799C245.098 103.799 244.556 103.849 244.211 103.947V112.269Z" fill="white"/>
<path d="M257.95 102.765V107.197H263.071V102.765H264.449V113.303H263.071V108.379H257.95V113.303H256.571V102.765H257.95Z" fill="white"/>
<path d="M272.229 108.379H268.142V112.17H272.722V113.303H266.813V102.765H272.475V103.898H268.142V107.246H272.229V108.379Z" fill="white"/>
<path d="M276.218 110.004L275.135 113.303H273.707L277.301 102.765H278.926L282.521 113.303H281.043L279.911 110.004H276.218ZM279.665 108.97L278.631 105.917C278.384 105.227 278.237 104.587 278.089 103.996H278.04C277.892 104.637 277.695 105.277 277.498 105.917L276.464 108.97H279.665Z" fill="white"/>
<path d="M284.047 102.765H285.426V112.17H289.956V113.303H284.096V102.765H284.047Z" fill="white"/>
<path d="M292.073 103.947H288.873V102.765H296.702V103.947H293.501V113.352H292.123V103.947H292.073Z" fill="white"/>
<path d="M299.213 102.765V107.197H304.334V102.765H305.713V113.303H304.334V108.379H299.213V113.303H297.834V102.765H299.213Z" fill="white"/>
<path d="M318.762 113.007C318.269 113.254 317.235 113.5 315.955 113.5C313.001 113.5 310.736 111.629 310.736 108.182C310.736 104.883 312.951 102.618 316.251 102.618C317.58 102.618 318.417 102.913 318.762 103.11L318.417 104.243C317.925 103.996 317.186 103.799 316.3 103.799C313.838 103.799 312.164 105.375 312.164 108.133C312.164 110.693 313.641 112.367 316.201 112.367C317.038 112.367 317.875 112.22 318.417 111.924L318.762 113.007Z" fill="white"/>
<path d="M322.209 110.004L321.125 113.303H319.697L323.292 102.765H324.917L328.511 113.303H327.034L325.902 110.004H322.209ZM325.655 108.97L324.621 105.917C324.375 105.227 324.227 104.587 324.08 103.996H324.03C323.883 104.637 323.686 105.277 323.489 105.917L322.455 108.97H325.655Z" fill="white"/>
<path d="M330.087 102.913C330.777 102.765 331.761 102.716 332.697 102.716C334.174 102.716 335.11 102.962 335.75 103.553C336.291 104.046 336.587 104.735 336.587 105.572C336.587 106.951 335.701 107.886 334.617 108.28V108.33C335.454 108.625 335.898 109.364 336.144 110.447C336.488 111.924 336.735 112.958 336.981 113.352H335.553C335.405 113.057 335.159 112.17 334.864 110.841C334.568 109.364 333.977 108.822 332.746 108.773H331.466V113.352H330.087V102.913ZM331.466 107.739H332.845C334.322 107.739 335.208 106.951 335.208 105.72C335.208 104.341 334.223 103.75 332.795 103.75C332.155 103.75 331.663 103.799 331.466 103.898V107.739Z" fill="white"/>
<path d="M343.973 108.379H339.886V112.17H344.466V113.303H338.557V102.765H344.269V103.898H339.935V107.246H344.022V108.379H343.973Z" fill="white"/>
<path d="M349.34 111.678C349.931 112.072 350.867 112.367 351.802 112.367C353.181 112.367 354.018 111.629 354.018 110.545C354.018 109.561 353.476 109.019 352.049 108.428C350.325 107.837 349.242 106.902 349.242 105.424C349.242 103.799 350.621 102.568 352.639 102.568C353.723 102.568 354.511 102.815 354.954 103.061L354.56 104.193C354.215 103.996 353.526 103.701 352.541 103.701C351.113 103.701 350.571 104.538 350.571 105.277C350.571 106.262 351.211 106.754 352.689 107.296C354.461 107.985 355.397 108.822 355.397 110.398C355.397 112.023 354.215 113.451 351.704 113.451C350.67 113.451 349.586 113.155 348.996 112.761L349.34 111.678Z" fill="white"/>
<path d="M359.582 113.352V108.871L356.234 102.815H357.76L359.238 105.72C359.632 106.508 359.976 107.148 360.272 107.886H360.321C360.616 107.197 360.961 106.508 361.404 105.72L362.931 102.815H364.457L360.912 108.871V113.352H359.582Z" fill="white"/>
<path d="M365.294 111.678C365.885 112.072 366.821 112.367 367.756 112.367C369.135 112.367 369.972 111.629 369.972 110.545C369.972 109.561 369.43 109.019 368.003 108.428C366.279 107.837 365.196 106.902 365.196 105.424C365.196 103.799 366.575 102.568 368.593 102.568C369.677 102.568 370.465 102.815 370.908 103.061L370.514 104.193C370.169 103.996 369.48 103.701 368.495 103.701C367.067 103.701 366.525 104.538 366.525 105.277C366.525 106.262 367.165 106.754 368.643 107.296C370.415 107.985 371.351 108.822 371.351 110.398C371.351 112.023 370.169 113.451 367.658 113.451C366.624 113.451 365.54 113.155 364.95 112.761L365.294 111.678Z" fill="white"/>
<path d="M375.241 103.947H372.04V102.765H379.82V103.947H376.62V113.352H375.241V103.947Z" fill="white"/>
<path d="M386.468 108.379H382.381V112.17H386.96V113.303H381.051V102.765H386.714V103.898H382.381V107.246H386.468V108.379Z" fill="white"/>
<path d="M397.596 108.723C397.498 107.246 397.448 105.474 397.448 104.193H397.399C397.054 105.424 396.611 106.754 396.07 108.182L394.199 113.303H393.164L391.441 108.28C390.949 106.803 390.505 105.424 390.21 104.193H390.161C390.112 105.523 390.062 107.295 389.964 108.871L389.668 113.401H388.388L389.127 102.864H390.85L392.672 107.985C393.115 109.265 393.46 110.447 393.755 111.53H393.805C394.051 110.447 394.445 109.314 394.937 107.985L396.808 102.864H398.532L399.172 113.401H397.842L397.596 108.723Z" fill="white"/>
<path d="M128.988 92.6711L119.583 63.6683H125.344L129.284 76.8649C130.416 80.5087 131.352 83.9063 132.14 87.4516H132.238C133.026 84.0048 134.06 80.4594 135.192 76.9633L139.427 63.7176H145.09L135.045 92.7204H128.988V92.6711Z" fill="white"/>
<path d="M151.639 84.4479L149.128 92.6711H143.662L152.968 63.6683H159.714L169.169 92.6711H163.506L160.896 84.4479H151.639ZM159.961 80.4594L157.696 73.3195C157.154 71.5468 156.661 69.5772 156.218 67.903H156.12C155.677 69.5772 155.283 71.5961 154.741 73.3195L152.525 80.4594H159.961Z" fill="white"/>
<path d="M187.24 92.6711L177.835 63.6683H183.596L187.535 76.8649C188.668 80.5087 189.603 83.9063 190.391 87.4516H190.49C191.278 84.0048 192.312 80.4594 193.444 76.9633L197.679 63.7176H203.342L193.297 92.7204H187.24V92.6711Z" fill="white"/>
<path d="M208.364 83.6599C208.512 87.4515 211.466 89.0764 214.815 89.0764C217.277 89.0764 219.049 88.7317 220.625 88.1408L221.413 91.7846C219.591 92.5233 217.129 93.0649 214.076 93.0649C207.281 93.0649 203.292 88.8794 203.292 82.4781C203.292 76.6677 206.838 71.202 213.534 71.202C220.33 71.202 222.595 76.8155 222.595 81.3949C222.595 82.3797 222.496 83.1675 222.447 83.6107H208.364V83.6599ZM217.572 79.9669C217.621 78.0465 216.735 74.8458 213.239 74.8458C209.989 74.8458 208.61 77.8003 208.364 79.9669H217.572Z" fill="white"/>
<path d="M226.829 77.9478C226.829 75.535 226.78 73.5162 226.682 71.6943H231.31L231.556 74.8457H231.704C232.591 73.2207 234.905 71.2511 238.401 71.2511C242.045 71.2511 245.836 73.6146 245.836 80.2621V92.72H240.518V80.9023C240.518 77.8986 239.386 75.5843 236.53 75.5843C234.412 75.5843 232.935 77.1107 232.394 78.6864C232.246 79.1788 232.197 79.819 232.197 80.4099V92.72H226.879V77.9478H226.829Z" fill="white"/>
<path d="M257.309 65.7357V71.6938H262.332V75.6331H257.309V84.8904C257.309 87.4509 257.999 88.7804 260.018 88.7804C260.904 88.7804 261.593 88.6327 262.086 88.5342L262.184 92.5719C261.396 92.8674 260.018 93.0643 258.343 93.0643C256.423 93.0643 254.749 92.4242 253.764 91.3409C252.631 90.1591 252.139 88.2387 252.139 85.4812V75.6331H249.135V71.6938H252.139V66.9667L257.309 65.7357Z" fill="white"/>
<path d="M285.13 86.3678C285.13 88.8791 285.229 90.9472 285.278 92.6706H280.649L280.403 89.47H280.305C279.418 90.9965 277.35 93.1138 273.608 93.1138C269.767 93.1138 266.271 90.8487 266.271 84.0043V71.6941H271.589V83.1179C271.589 86.614 272.722 88.8299 275.528 88.8299C277.646 88.8299 279.025 87.3034 279.566 85.9739C279.714 85.4815 279.862 84.9398 279.862 84.349V71.6941H285.18V86.3678H285.13Z" fill="white"/>
<path d="M290.891 78.4404C290.891 75.5844 290.842 73.5656 290.744 71.6944H295.372L295.52 75.6829H295.668C296.702 72.7285 299.164 71.202 301.38 71.202C301.872 71.202 302.217 71.2513 302.611 71.3497V76.3231C302.168 76.2246 301.724 76.1753 301.084 76.1753C298.524 76.1753 296.8 77.8003 296.357 80.1638C296.259 80.6562 296.209 81.1979 296.209 81.7888V92.6217H290.891V78.4404Z" fill="white"/>
<path d="M309.554 83.6599C309.701 87.4515 312.656 89.0764 316.004 89.0764C318.466 89.0764 320.239 88.7317 321.815 88.1408L322.602 91.7846C320.781 92.5233 318.319 93.0649 315.266 93.0649C308.47 93.0649 304.482 88.8794 304.482 82.4781C304.482 76.6677 308.027 71.202 314.724 71.202C321.519 71.202 323.784 76.8155 323.784 81.3949C323.784 82.3797 323.686 83.1675 323.637 83.6107H309.554V83.6599ZM318.762 79.9669C318.811 78.0465 317.925 74.8458 314.429 74.8458C311.179 74.8458 309.8 77.8003 309.554 79.9669H318.762Z" fill="white"/>
<path d="M327.773 87.796C328.954 88.5346 331.269 89.3224 333.14 89.3224C335.454 89.3224 336.488 88.3869 336.488 87.0081C336.488 85.5801 335.651 84.8415 333.041 83.9552C328.954 82.5272 327.231 80.3114 327.28 77.8494C327.28 74.1563 330.333 71.2511 335.208 71.2511C337.522 71.2511 339.541 71.842 340.772 72.4821L339.738 76.2244C338.852 75.732 337.178 75.0426 335.307 75.0426C333.435 75.0426 332.401 75.929 332.401 77.2585C332.401 78.588 333.386 79.2281 336.045 80.1637C339.837 81.5424 341.609 83.4628 341.659 86.565C341.659 90.3565 338.704 93.114 333.14 93.114C330.579 93.114 328.314 92.5231 326.788 91.6368L327.773 87.796Z" fill="white"/>
</svg>
