<svg width="266" height="286" viewBox="0 0 266 286" fill="none" xmlns="http://www.w3.org/2000/svg">
<path d="M254.584 153.303L254.586 153.314C255.469 157.988 255.939 162.624 255.939 167.166C255.924 185.777 246.115 204.098 230.372 220.597C214.639 237.086 193.066 251.662 169.752 262.761C146.44 273.86 121.439 281.46 98.877 284.035C76.2823 286.613 56.2945 284.136 42.8624 275.277L42.8621 275.276C29.4081 266.41 18.7607 249.503 11.5645 228.368C4.37691 207.259 0.677286 182.06 1.02209 156.785C1.36691 131.509 5.75584 106.208 14.7019 84.8825C23.6488 63.5552 37.1219 46.2734 55.598 36.8958L55.1499 36.013L55.598 36.8958C87.9744 20.4621 130.334 28.7951 167.909 49.9213C205.462 71.0353 237.912 104.757 250.433 138.575L250.454 138.631L250.481 138.685C252.048 141.73 253.249 145.772 254.584 153.303Z" stroke="#E87524" stroke-width="2"/>
<path d="M275.804 126.087L275.806 126.098C276.689 130.772 277.158 135.408 277.158 139.949C277.143 158.561 267.334 176.882 251.591 193.381C235.858 209.87 214.285 224.445 190.972 235.545C167.659 246.644 142.658 254.244 120.096 256.819C97.5016 259.397 77.5139 256.92 64.0818 248.06L64.0815 248.06C50.6275 239.193 39.9801 222.287 32.7838 201.152C25.5963 180.043 21.8966 154.844 22.2415 129.569C22.5863 104.293 26.9752 78.9915 35.9212 57.6663C44.8681 36.339 58.3412 19.0573 76.8173 9.67962L76.3693 8.79684L76.8174 9.67961C109.194 -6.75411 151.554 1.57886 189.128 22.7052C226.681 43.8191 259.131 77.5409 271.652 111.358L271.673 111.415L271.701 111.469C273.268 114.513 274.468 118.556 275.804 126.087Z" stroke="#CA3733" stroke-width="2"/>
</svg>
