<svg width="603" height="620" viewBox="0 0 603 620" fill="none" xmlns="http://www.w3.org/2000/svg">
<path d="M553.046 332.131L553.048 332.141C554.974 342.339 556 352.463 556 362.388C555.968 403.151 534.49 443.141 500.252 479.024C466.025 514.896 419.131 546.569 368.496 570.677C317.863 594.784 263.54 611.301 214.481 616.9C165.389 622.503 121.73 617.155 92.2756 597.728L91.725 598.563L92.2752 597.728C62.7993 578.302 39.603 541.369 23.9644 495.44C8.33441 449.536 0.298949 394.775 1.048 339.868C1.79706 284.959 11.3303 229.957 30.7943 183.559C50.2591 137.16 79.6237 99.4348 119.999 78.9424L119.546 78.0507L119.999 78.9424C190.695 43.0578 282.973 61.3246 364.571 107.203C446.147 153.069 516.727 226.361 543.991 300.001L544.012 300.057L544.04 300.111C547.519 306.872 550.146 315.778 553.046 332.131Z" stroke="#E87524" stroke-width="2"/>
<path d="M599.046 273.131L599.048 273.141C600.974 283.339 602 293.463 602 303.388C601.968 344.151 580.49 384.141 546.252 420.024C512.025 455.896 465.131 487.569 414.496 511.677C363.863 535.784 309.54 552.301 260.481 557.9C211.389 563.503 167.73 558.155 138.276 538.728L137.725 539.563L138.275 538.728C108.799 519.302 85.603 482.369 69.9644 436.44C54.3344 390.536 46.2989 335.775 47.048 280.868C47.7971 225.959 57.3303 170.957 76.7943 124.559C96.2591 78.1595 125.624 40.4348 165.999 19.9424L165.546 19.0507L165.999 19.9424C236.695 -15.9422 328.973 2.32463 410.571 48.203C492.147 94.0691 562.727 167.361 589.991 241.001L590.012 241.057L590.04 241.111C593.519 247.872 596.146 256.778 599.046 273.131Z" stroke="#CA3733" stroke-width="2"/>
</svg>
